<?xml version="1.0" encoding="UTF-8"?>
<!-- Generator: Adobe Illustrator 14.0.0, SVG Export Plug-In . SVG Version: 6.00 Build 43363)  -->
<!DOCTYPE svg PUBLIC "-//W3C//DTD SVG 1.1//EN" "http://www.w3.org/Graphics/SVG/1.1/DTD/svg11.dtd">
<svg version="1.1" id="Layer_1" xmlns="http://www.w3.org/2000/svg" xmlns:xlink="http://www.w3.org/1999/xlink" x="0px" y="0px" width="642.331px" height="303px" viewBox="0 0 642.331 303" enable-background="new 0 0 642.331 303" xml:space="preserve">
<circle fill="#FBB040" fill-opacity="0.2" stroke="#000000" stroke-width="0.25" cx="287.237" cy="198.193" r="11.322"/>
<circle fill="#7F3F98" fill-opacity="0.15" stroke="#000000" stroke-width="0.25" cx="240.148" cy="198.193" r="11.322"/>
<g>
	<path opacity="0.5" fill="#8DC63F" d="M-128,69.657c-3.239,0-5.875-2.636-5.875-5.875s2.636-5.875,5.875-5.875   s5.875,2.636,5.875,5.875S-124.761,69.657-128,69.657L-128,69.657z"/>
	<path fill="#8DC63F" d="M-128,58.032c3.17,0,5.75,2.58,5.75,5.75s-2.58,5.75-5.75,5.75s-5.75-2.58-5.75-5.75   S-131.17,58.032-128,58.032 M-128,57.782c-3.314,0-6,2.688-6,6c0,3.314,2.686,6,6,6s6-2.686,6-6   C-122,60.469-124.686,57.782-128,57.782L-128,57.782z"/>
</g>
<g>
	<path opacity="0.5" fill="#ED1C24" d="M-128,85.768c-3.239,0-5.875-2.636-5.875-5.875s2.636-5.875,5.875-5.875   s5.875,2.636,5.875,5.875S-124.761,85.768-128,85.768L-128,85.768z"/>
	<path fill="#ED1C24" d="M-128,74.143c3.17,0,5.75,2.58,5.75,5.75s-2.58,5.75-5.75,5.75s-5.75-2.58-5.75-5.75   S-131.17,74.143-128,74.143 M-128,73.893c-3.314,0-6,2.688-6,6c0,3.314,2.686,6,6,6s6-2.686,6-6   C-122,76.58-124.686,73.893-128,73.893L-128,73.893z"/>
</g>
<g>
	<path fill="none" stroke="#8DC63F" d="M110.278,28.138"/>
	<path fill="none" stroke="#8DC63F" d="M99.444,30.338"/>
	<g>
		<path opacity="0.5" fill="#8DC63F" d="M94.112,33.406c-2.713,0-5.097-1.895-5.716-4.523l6.322-1.392l4.537,2.876    C98.219,32.245,96.259,33.406,94.112,33.406L94.112,33.406z"/>
		<path fill="#8DC63F" d="M94.646,27.635l4.442,2.775c-1.028,1.777-2.914,2.871-4.975,2.871c-2.613,0-4.914-1.795-5.564-4.304    L94.646,27.635 M94.691,27.369l-6.445,1.419c0.578,2.71,2.983,4.743,5.866,4.743c2.305,0,4.304-1.301,5.309-3.207L94.691,27.369    L94.691,27.369z"/>
	</g>
	<g>
		<path opacity="0.5" fill="#8DC63F" d="M153.612,107.449c-2.349-0.828-3.92-3.039-3.92-5.537c0-1.885,0.909-3.656,2.438-4.761    l4.062,4.903L153.612,107.449z"/>
		<path fill="#8DC63F" d="M152.11,97.322l3.936,4.75l-2.497,5.221c-2.241-0.838-3.731-2.974-3.731-5.381    C149.817,100.106,150.67,98.407,152.11,97.322 M152.153,96.982c-1.562,1.083-2.585,2.887-2.585,4.93    c0,2.653,1.723,4.899,4.11,5.691l2.663-5.568L152.153,96.982L152.153,96.982z"/>
	</g>
	<g>
		<path opacity="0.5" fill="#8DC63F" d="M156.699,78.867c0.667-2.602,2.989-4.41,5.684-4.41c0.265,0,0.542,0.022,0.845,0.067    l-0.921,6.433L156.699,78.867z"/>
		<path fill="#8DC63F" d="M162.383,74.582c0.222,0,0.454,0.016,0.703,0.049l-0.882,6.155l-5.355-1.997    C157.538,76.301,159.783,74.582,162.383,74.582 M162.383,74.332c-2.836,0-5.206,1.97-5.832,4.613l5.857,2.184l0.961-6.709    C163.047,74.367,162.719,74.332,162.383,74.332L162.383,74.332z"/>
	</g>
	<g>
		<path opacity="0.5" fill="#8DC63F" d="M171.951,68.908l-0.001-0.024c0-3.198,2.568-5.807,5.75-5.874v5.897H171.951z"/>
		<path fill="#8DC63F" d="M177.575,63.139v5.644h-5.499C172.128,65.742,174.553,63.269,177.575,63.139 M177.825,62.884    c-3.314,0-6,2.688-6,6c0,0.05,0.006,0.099,0.007,0.149h5.993V62.884L177.825,62.884z"/>
	</g>
	<g>
		<path opacity="0.5" fill="#8DC63F" d="M177.7,62.103c-3.182-0.066-5.75-2.676-5.75-5.874c0-0.138,0.007-0.274,0.017-0.41h5.733    V62.103z"/>
		<path fill="#8DC63F" d="M177.575,55.944v6.029c-3.055-0.131-5.5-2.658-5.5-5.745c0-0.096,0.003-0.19,0.009-0.285H177.575     M177.825,55.694h-5.973c-0.016,0.176-0.027,0.354-0.027,0.535c0,3.314,2.686,6,6,6V55.694L177.825,55.694z"/>
	</g>
	<g>
		<path opacity="0.5" fill="#8DC63F" d="M82.197,86.358c1.098-1.622,2.907-2.586,4.864-2.586c1.831,0,3.514,0.829,4.638,2.28    l-4.654,3.878L82.197,86.358z"/>
		<path fill="#8DC63F" d="M87.061,83.897c1.751,0,3.365,0.776,4.465,2.137l-4.485,3.738l-4.671-3.442    C83.45,84.802,85.186,83.897,87.061,83.897 M87.061,83.647c-2.111,0-3.964,1.093-5.034,2.741l5.022,3.701l4.821-4.018    C90.777,84.603,89.033,83.647,87.061,83.647L87.061,83.647z"/>
	</g>
	<g>
		<path opacity="0.5" fill="#8DC63F" d="M64.63,73.414l6.375-1.821c0.122,0.48,0.183,0.961,0.183,1.434    c0,1.51-0.57,2.938-1.608,4.035L64.63,73.414z"/>
		<path fill="#8DC63F" d="M70.914,71.749c0.099,0.428,0.149,0.857,0.149,1.278c0,1.441-0.531,2.806-1.499,3.868l-4.655-3.43    L70.914,71.749 M71.093,71.438l-6.742,1.926l5.243,3.863c1.062-1.083,1.719-2.564,1.719-4.201    C71.313,72.476,71.232,71.944,71.093,71.438L71.093,71.438z"/>
	</g>
	<g>
		<path opacity="0.5" fill="#8DC63F" d="M163.86,47.746c-2.959-0.309-5.261-2.85-5.261-5.839c0-1.108,0.312-2.186,0.902-3.124    l5.025,2.988L163.86,47.746z"/>
		<path fill="#8DC63F" d="M159.543,38.954l4.85,2.884l-0.644,5.77c-2.837-0.359-5.025-2.816-5.025-5.7    C158.725,40.863,159.007,39.847,159.543,38.954 M159.462,38.615c-0.623,0.946-0.987,2.076-0.987,3.292    c0,3.145,2.418,5.719,5.497,5.975l0.688-6.176L159.462,38.615L159.462,38.615z"/>
	</g>
	<g>
		<path opacity="0.5" fill="#8DC63F" d="M153.188,41.063c-2.687,0-5.005-1.799-5.679-4.391l5.752-1.646l5.046,3.045    C157.264,39.92,155.314,41.063,153.188,41.063L153.188,41.063z"/>
		<path fill="#8DC63F" d="M153.192,35.177l4.945,2.94c-1.035,1.746-2.909,2.821-4.948,2.821c-2.589,0-4.828-1.707-5.526-4.179    L153.192,35.177 M153.227,34.907l-5.868,1.679c0.63,2.639,2.997,4.603,5.83,4.603c2.287,0,4.273-1.279,5.286-3.161L153.227,34.907    L153.227,34.907z"/>
	</g>
	<g>
		<path opacity="0.5" fill="#8DC63F" d="M117.278,23.687c-1.193,0-2.339-0.358-3.324-1.037l2.951-4.59l2.7,5.142    C118.863,23.524,118.081,23.687,117.278,23.687L117.278,23.687z"/>
		<path fill="#8DC63F" d="M116.895,18.308l2.537,4.832c-0.689,0.28-1.412,0.422-2.153,0.422c-1.127,0-2.212-0.327-3.152-0.947    L116.895,18.308 M116.917,17.812l-3.132,4.872c0.984,0.708,2.188,1.128,3.494,1.128c0.893,0,1.738-0.2,2.5-0.55L116.917,17.812    L116.917,17.812z"/>
	</g>
	<g>
		<path opacity="0.5" fill="#ED1C24" d="M163.369,61.569c-3.239,0-5.875-2.636-5.875-5.875s2.636-5.875,5.875-5.875    c0.087,0,0.174,0.005,0.26,0.011l-0.667,5.989h6.281C169.176,59.001,166.566,61.569,163.369,61.569L163.369,61.569z"/>
		<path fill="#ED1C24" d="M163.369,49.944c0.041,0,0.081,0.001,0.121,0.003l-0.638,5.719l-0.031,0.278h0.279h6.013    c-0.131,3.055-2.658,5.5-5.745,5.5c-3.17,0-5.75-2.58-5.75-5.75S160.198,49.944,163.369,49.944 M163.369,49.694    c-3.314,0-6,2.688-6,6c0,3.314,2.686,6,6,6s6-2.686,6-6h-6.268l0.667-5.98C163.635,49.706,163.503,49.694,163.369,49.694    L163.369,49.694z"/>
	</g>
	<g>
		<path opacity="0.5" fill="#ED1C24" d="M163.197,74.733c-3.044-0.237-5.413-2.785-5.413-5.849c0-3.239,2.636-5.875,5.875-5.875    s5.875,2.636,5.875,5.875l0.118,0.024h-5.621L163.197,74.733z"/>
		<path fill="#ED1C24" d="M163.66,63.134c3.137,0,5.695,2.524,5.749,5.649h-5.269h-0.217l-0.031,0.214l-0.802,5.601    c-2.923-0.288-5.181-2.754-5.181-5.714C157.91,65.713,160.489,63.134,163.66,63.134 M163.66,62.884c-3.314,0-6,2.688-6,6    c0,3.195,2.497,5.797,5.645,5.982l0.835-5.833h5.512c0.001-0.05,0.007-0.099,0.007-0.149    C169.66,65.571,166.974,62.884,163.66,62.884L163.66,62.884z"/>
	</g>
	<g>
		<path opacity="0.5" fill="#ED1C24" d="M144.589,77.656c-0.325-0.647-0.496-1.369-0.496-2.096c0-2.578,2.097-4.675,4.675-4.675    s4.675,2.097,4.675,4.675c0,0.56-0.1,1.108-0.296,1.633l-4.563-1.702L144.589,77.656z"/>
		<path fill="#ED1C24" d="M148.769,71.01c2.509,0,4.55,2.041,4.55,4.55c0,0.503-0.083,0.997-0.246,1.472l-4.391-1.638l-0.106-0.04    l-0.1,0.054l-3.83,2.075c-0.279-0.6-0.426-1.26-0.426-1.924C144.219,73.051,146.26,71.01,148.769,71.01 M148.769,70.76    c-2.651,0-4.8,2.15-4.8,4.8c0,0.82,0.207,1.592,0.568,2.267l4.057-2.198l4.625,1.725c0.224-0.554,0.35-1.159,0.35-1.793    C153.568,72.91,151.42,70.76,148.769,70.76L148.769,70.76z"/>
	</g>
	<g>
		<path opacity="0.5" fill="#ED1C24" d="M138.701,87.004c-3.239,0-5.875-2.636-5.875-5.875s2.636-5.875,5.875-5.875    c2.174,0,4.146,1.185,5.173,3.1l-5.051,2.737l3.712,4.48C141.466,86.496,140.109,87.004,138.701,87.004L138.701,87.004z"/>
		<path fill="#ED1C24" d="M138.701,75.379c2.086,0,3.981,1.115,5.003,2.925l-4.807,2.605l-0.268,0.145l0.194,0.234l3.536,4.267    c-1.032,0.855-2.322,1.323-3.66,1.323c-3.17,0-5.75-2.58-5.75-5.75S135.531,75.379,138.701,75.379 M138.701,75.129    c-3.314,0-6,2.688-6,6c0,3.314,2.686,6,6,6c1.543,0,2.945-0.587,4.008-1.544l-3.692-4.456l5.025-2.724    C143.05,76.462,141.033,75.129,138.701,75.129L138.701,75.129z"/>
	</g>
	<g>
		<path opacity="0.5" fill="#ED1C24" d="M117.107,95.964c-0.578,0-1.153-0.086-1.713-0.257l1.672-5.686l-5.256-2.463    c0.975-2.036,3.04-3.344,5.297-3.344c3.239,0,5.875,2.636,5.875,5.875S120.347,95.964,117.107,95.964L117.107,95.964z"/>
		<path fill="#ED1C24" d="M117.107,84.339c3.17,0,5.75,2.58,5.75,5.75s-2.58,5.75-5.75,5.75c-0.525,0-1.047-0.073-1.558-0.217    l1.606-5.463l0.061-0.206l-0.194-0.091l-5.043-2.364C112.954,85.571,114.94,84.339,117.107,84.339 M117.107,84.089    c-2.432,0-4.521,1.45-5.463,3.529l5.272,2.471l-1.676,5.7c0.588,0.192,1.215,0.3,1.867,0.3c3.314,0,6-2.686,6-6    C123.107,86.776,120.422,84.089,117.107,84.089L117.107,84.089z"/>
	</g>
	<g>
		<path opacity="0.5" fill="#ED1C24" d="M93.187,84.812c-0.839-1.042-1.3-2.345-1.3-3.683c0-3.239,2.636-5.875,5.875-5.875    s5.875,2.636,5.875,5.875c0,0.814-0.168,1.608-0.501,2.362l-5.354-2.509L93.187,84.812z"/>
		<path fill="#ED1C24" d="M97.762,75.379c3.17,0,5.75,2.58,5.75,5.75c0,0.755-0.148,1.492-0.44,2.194l-5.165-2.421l-0.144-0.067    l-0.122,0.102l-4.436,3.696c-0.771-1.002-1.193-2.237-1.193-3.504C92.012,77.958,94.592,75.379,97.762,75.379 M97.762,75.129    c-3.314,0-6,2.688-6,6c0,1.471,0.531,2.816,1.408,3.859l4.631-3.859l5.396,2.529c0.358-0.77,0.564-1.624,0.564-2.529    C103.762,77.816,101.077,75.129,97.762,75.129L97.762,75.129z"/>
	</g>
	<g>
		<path opacity="0.5" fill="#ED1C24" d="M84.988,72.685c-2.359,0-4.46-1.387-5.392-3.547l5.762-1.646l1.893-6.099    c2.199,0.917,3.613,3.029,3.613,5.417C90.863,70.049,88.228,72.685,84.988,72.685L84.988,72.685z"/>
		<path fill="#ED1C24" d="M87.329,61.562c2.08,0.925,3.41,2.957,3.41,5.248c0,3.17-2.58,5.75-5.75,5.75    c-2.261,0-4.28-1.302-5.219-3.341l5.559-1.588l0.13-0.037l0.04-0.129L87.329,61.562 M87.171,61.226l-1.913,6.164l-5.832,1.667    c0.89,2.2,3.042,3.753,5.562,3.753c3.314,0,6-2.686,6-6C90.988,64.269,89.405,62.1,87.171,61.226L87.171,61.226z"/>
	</g>
	<g>
		<path opacity="0.5" fill="#ED1C24" d="M90.774,55.569c-0.558,0-1.11-0.079-1.644-0.233l1.643-5.294l-3.851-4.775    c1.073-0.934,2.436-1.447,3.852-1.447c3.239,0,5.875,2.636,5.875,5.875S94.013,55.569,90.774,55.569L90.774,55.569z"/>
		<path fill="#ED1C24" d="M90.774,43.944c3.17,0,5.75,2.58,5.75,5.75s-2.58,5.75-5.75,5.75c-0.503,0-1.002-0.065-1.486-0.194    l1.584-5.108l0.04-0.127l-0.083-0.104l-3.732-4.628C88.132,44.418,89.429,43.944,90.774,43.944 M90.774,43.694    c-1.55,0-2.958,0.593-4.023,1.558l3.883,4.815l-1.66,5.351c0.568,0.178,1.173,0.275,1.8,0.275c3.314,0,6-2.686,6-6    C96.774,46.382,94.088,43.694,90.774,43.694L90.774,43.694z"/>
	</g>
	<g>
		<path opacity="0.5" fill="#ED1C24" d="M129.496,47.063c-3.239,0-5.875-2.636-5.875-5.875c0-2.03,1.07-3.934,2.801-5l2.975,5.666    l5.885-1.683c0.06,0.338,0.089,0.68,0.089,1.018C135.371,44.428,132.735,47.063,129.496,47.063L129.496,47.063z"/>
		<path fill="#ED1C24" d="M126.375,36.366l2.864,5.456l0.094,0.18l0.196-0.056l5.652-1.616c0.043,0.286,0.065,0.574,0.065,0.859    c0,3.17-2.58,5.75-5.75,5.75s-5.75-2.58-5.75-5.75C123.746,39.247,124.747,37.422,126.375,36.366 M126.472,36.013    c-1.778,1.042-2.976,2.967-2.976,5.176c0,3.314,2.686,6,6,6s6-2.686,6-6c0-0.403-0.041-0.795-0.117-1.176l-5.919,1.693    L126.472,36.013L126.472,36.013z"/>
	</g>
	<g>
		<path opacity="0.5" fill="#ED1C24" d="M106.112,40.013c-3.239,0-5.875-2.636-5.875-5.875c0-0.951,0.233-1.893,0.676-2.734    l5.289,3.305l3.401-5.291c1.495,1.108,2.384,2.862,2.384,4.72C111.987,37.377,109.352,40.013,106.112,40.013L106.112,40.013z"/>
		<path fill="#ED1C24" d="M109.636,29.6c1.399,1.088,2.227,2.766,2.227,4.539c0,3.17-2.58,5.75-5.75,5.75s-5.75-2.58-5.75-5.75    c0-0.885,0.207-1.763,0.601-2.556l5.069,3.167l0.209,0.131l0.134-0.208L109.636,29.6 M109.57,29.24l-3.406,5.298l-5.297-3.31    c-0.479,0.862-0.755,1.854-0.755,2.91c0,3.314,2.686,6,6,6s6-2.686,6-6C112.112,32.114,111.106,30.327,109.57,29.24L109.57,29.24z    "/>
	</g>
	<g>
		<path opacity="0.5" fill="#8DC63F" d="M75.925,31.629l5.918-1.303c0.204,0.608,0.307,1.232,0.307,1.856    c0,1.759-0.775,3.4-2.132,4.523L75.925,31.629z"/>
		<path fill="#8DC63F" d="M81.76,30.473c0.176,0.562,0.266,1.136,0.266,1.71c0,1.679-0.722,3.249-1.99,4.345l-3.886-4.82    L81.76,30.473 M81.926,30.18l-6.225,1.371L80,36.882c1.385-1.099,2.275-2.793,2.275-4.699    C82.275,31.479,82.148,30.807,81.926,30.18L81.926,30.18z"/>
	</g>
	<g>
		<path opacity="0.5" fill="#8DC63F" d="M112.375,105.026c1.888,0.516,3.414,1.974,4.024,3.848l-5.553,1.352L112.375,105.026z"/>
		<path fill="#8DC63F" d="M112.46,105.18c1.75,0.52,3.167,1.872,3.777,3.604l-5.21,1.269L112.46,105.18 M112.29,104.874    l-1.624,5.524l5.894-1.435C115.955,106.956,114.338,105.388,112.29,104.874L112.29,104.874z"/>
	</g>
	<g>
		<path opacity="0.5" fill="#8DC63F" d="M145.046,112.367c1.123-1.432,2.798-2.25,4.615-2.25c0.867,0,1.707,0.189,2.5,0.564    l-2.349,4.908L145.046,112.367z"/>
		<path fill="#8DC63F" d="M149.661,110.242c0.807,0,1.59,0.168,2.332,0.5l-0.367,0.768l-1.864,3.895l-4.534-3.064    C146.326,111.003,147.927,110.242,149.661,110.242 M149.661,109.992c-1.964,0-3.701,0.947-4.795,2.405l4.996,3.377l1.989-4.157    l0.476-0.994C151.522,110.223,150.62,109.992,149.661,109.992L149.661,109.992z"/>
	</g>
	<g>
		<path opacity="0.5" fill="#ED1C24" d="M132.769,104.769l-5.785,1.429c-0.104-0.447-0.157-0.892-0.157-1.324    c0-3.239,2.636-5.875,5.875-5.875s5.875,2.636,5.875,5.875c0,1.078-0.297,2.131-0.861,3.054L132.769,104.769z"/>
		<path fill="#ED1C24" d="M132.701,99.124c3.17,0,5.75,2.58,5.75,5.75c0,1.013-0.268,2.003-0.777,2.879l-4.838-3.09l-0.091-0.058    l-0.105,0.027l-5.562,1.412c-0.083-0.395-0.126-0.788-0.126-1.17C126.951,101.704,129.531,99.124,132.701,99.124 M132.701,98.874    c-3.314,0-6,2.688-6,6c0,0.51,0.07,1.002,0.19,1.475l5.81-1.475l5.053,3.227c0.597-0.932,0.947-2.038,0.947-3.227    C138.701,101.562,136.016,98.874,132.701,98.874L132.701,98.874z"/>
	</g>
	<polygon fill="none" stroke="#000000" points="163.101,55.694 164.66,41.706 153.227,34.907 129.46,41.706 116.917,17.812 106.164,34.538 94.691,27.369 75.701,31.551 90.634,50.068 85.259,67.39 64.352,73.364 87.05,90.089 97.802,81.129 116.917,90.089 110.943,110.398 132.701,104.874 149.769,115.774 156.34,102.036 139.017,81.129 148.55,75.962 162.408,81.129 164.14,69.033 177.825,69.033 177.825,55.694"/>
	<g>
		<path d="M121.997,66.976l-0.839,2.542h-1.08l2.758-8.083h1.248l2.758,8.083h-1.115l-0.864-2.542H121.997z M124.659,66.16    l-0.804-2.327c-0.18-0.527-0.3-1.007-0.419-1.475h-0.024c-0.12,0.468-0.24,0.972-0.408,1.463l-0.792,2.338H124.659z"/>
	</g>
</g>
<g>
	<polygon fill="#FBB040" fill-opacity="0.2" points="273.927,41.706 297.693,34.907 309.126,41.706 307.566,55.694 322.291,55.694 322.291,69.033 308.606,69.033 306.874,81.129 293.016,75.962 283.483,81.129"/>
	<polygon fill="#7F3F98" fill-opacity="0.15" points="283.483,81.129 273.927,41.706 261.383,17.812 250.63,34.538 239.158,27.369 220.167,31.551 235.1,50.068 229.725,67.39 208.818,73.364 231.516,90.089 242.268,81.129 261.383,90.089 255.41,110.398 277.483,104.874 294.235,115.774 300.807,102.036"/>
	<path fill="#FFFFFF" stroke="#000000" d="M283.483,81.129"/>
	<path fill="none" stroke="#8DC63F" d="M254.747,28.624"/>
	<path fill="none" stroke="#8DC63F" d="M243.913,30.824"/>
	<g>
		<path opacity="0.5" fill="#8DC63F" d="M238.581,33.892c-2.713,0-5.097-1.895-5.716-4.523l6.322-1.392l4.537,2.876    C242.688,32.73,240.728,33.892,238.581,33.892L238.581,33.892z"/>
		<path fill="#8DC63F" d="M239.114,28.121l4.442,2.775c-1.028,1.777-2.914,2.871-4.975,2.871c-2.613,0-4.914-1.795-5.564-4.304    L239.114,28.121 M239.16,27.854l-6.445,1.419c0.578,2.71,2.983,4.743,5.866,4.743c2.305,0,4.304-1.301,5.309-3.207L239.16,27.854    L239.16,27.854z"/>
	</g>
	<g>
		<path opacity="0.5" fill="#8DC63F" d="M298.081,107.935c-2.349-0.828-3.92-3.039-3.92-5.537c0-1.885,0.909-3.656,2.438-4.761    l4.063,4.903L298.081,107.935z"/>
		<path fill="#8DC63F" d="M296.579,97.807l3.936,4.75l-2.497,5.221c-2.241-0.838-3.731-2.974-3.731-5.381    C294.286,100.592,295.139,98.893,296.579,97.807 M296.622,97.467c-1.562,1.083-2.585,2.887-2.585,4.93    c0,2.653,1.723,4.899,4.11,5.691l2.663-5.568L296.622,97.467L296.622,97.467z"/>
	</g>
	<g>
		<path opacity="0.5" fill="#8DC63F" d="M301.168,79.352c0.667-2.602,2.988-4.41,5.684-4.41c0.265,0,0.542,0.022,0.845,0.067    l-0.921,6.433L301.168,79.352z"/>
		<path fill="#8DC63F" d="M306.852,75.067c0.223,0,0.454,0.016,0.703,0.049l-0.882,6.155l-5.355-1.997    C302.006,76.786,304.252,75.067,306.852,75.067 M306.852,74.817c-2.836,0-5.205,1.97-5.832,4.613l5.857,2.184l0.961-6.709    C307.516,74.852,307.188,74.817,306.852,74.817L306.852,74.817z"/>
	</g>
	<g>
		<path opacity="0.5" fill="#8DC63F" d="M316.42,69.393l-0.002-0.024c0-3.198,2.568-5.807,5.75-5.874v5.897H316.42z"/>
		<path fill="#8DC63F" d="M322.043,63.625v5.644h-5.498C316.597,66.228,319.021,63.754,322.043,63.625 M322.293,63.369    c-3.314,0-6,2.688-6,6c0,0.05,0.007,0.099,0.008,0.149h5.992V63.369L322.293,63.369z"/>
	</g>
	<g>
		<path opacity="0.5" fill="#8DC63F" d="M322.168,62.588c-3.182-0.066-5.75-2.676-5.75-5.874c0-0.138,0.008-0.274,0.018-0.41h5.732    V62.588z"/>
		<path fill="#8DC63F" d="M322.043,56.43v6.029c-3.055-0.131-5.5-2.658-5.5-5.745c0-0.096,0.004-0.19,0.01-0.285H322.043     M322.293,56.18h-5.973c-0.016,0.176-0.027,0.354-0.027,0.535c0,3.314,2.686,6,6,6V56.18L322.293,56.18z"/>
	</g>
	<g>
		<path opacity="0.5" fill="#8DC63F" d="M226.666,86.843c1.098-1.622,2.907-2.586,4.864-2.586c1.831,0,3.514,0.829,4.638,2.28    l-4.654,3.878L226.666,86.843z"/>
		<path fill="#8DC63F" d="M231.53,84.382c1.751,0,3.365,0.776,4.464,2.137l-4.485,3.738l-4.671-3.442    C227.918,85.287,229.655,84.382,231.53,84.382 M231.53,84.132c-2.111,0-3.964,1.093-5.034,2.741l5.022,3.701l4.821-4.018    C235.246,85.088,233.502,84.132,231.53,84.132L231.53,84.132z"/>
	</g>
	<g>
		<path opacity="0.5" fill="#8DC63F" d="M209.099,73.899l6.375-1.821c0.122,0.48,0.183,0.961,0.183,1.434    c0,1.51-0.57,2.938-1.608,4.035L209.099,73.899z"/>
		<path fill="#8DC63F" d="M215.383,72.234c0.099,0.428,0.149,0.857,0.149,1.278c0,1.441-0.531,2.806-1.499,3.868l-4.655-3.43    L215.383,72.234 M215.562,71.923l-6.742,1.926l5.243,3.863c1.062-1.083,1.719-2.564,1.719-4.201    C215.782,72.961,215.701,72.43,215.562,71.923L215.562,71.923z"/>
	</g>
	<g>
		<path opacity="0.5" fill="#8DC63F" d="M308.329,48.231c-2.96-0.309-5.261-2.85-5.261-5.839c0-1.108,0.312-2.186,0.902-3.124    l5.024,2.988L308.329,48.231z"/>
		<path fill="#8DC63F" d="M304.012,39.439l4.851,2.884l-0.644,5.77c-2.837-0.359-5.025-2.816-5.025-5.7    C303.193,41.349,303.476,40.333,304.012,39.439 M303.931,39.1c-0.622,0.946-0.987,2.076-0.987,3.292    c0,3.145,2.418,5.719,5.496,5.975l0.689-6.176L303.931,39.1L303.931,39.1z"/>
	</g>
	<g>
		<path opacity="0.5" fill="#8DC63F" d="M297.657,41.549c-2.687,0-5.005-1.799-5.679-4.391l5.752-1.646l5.045,3.045    C301.732,40.406,299.783,41.549,297.657,41.549L297.657,41.549z"/>
		<path fill="#8DC63F" d="M297.661,35.663l4.945,2.94c-1.035,1.746-2.909,2.821-4.948,2.821c-2.589,0-4.828-1.707-5.526-4.179    L297.661,35.663 M297.696,35.393l-5.868,1.679c0.63,2.639,2.997,4.603,5.83,4.603c2.287,0,4.273-1.279,5.286-3.161L297.696,35.393    L297.696,35.393z"/>
	</g>
	<g>
		<path opacity="0.5" fill="#8DC63F" d="M261.747,24.172c-1.193,0-2.339-0.358-3.324-1.037l2.951-4.59l2.7,5.142    C263.332,24.009,262.549,24.172,261.747,24.172L261.747,24.172z"/>
		<path fill="#8DC63F" d="M261.363,18.793l2.537,4.832c-0.689,0.28-1.412,0.422-2.153,0.422c-1.127,0-2.212-0.327-3.152-0.947    L261.363,18.793 M261.385,18.297l-3.132,4.872c0.984,0.708,2.188,1.128,3.494,1.128c0.893,0,1.738-0.2,2.5-0.55L261.385,18.297    L261.385,18.297z"/>
	</g>
	<g>
		<path opacity="0.5" fill="#ED1C24" d="M307.838,62.055c-3.24,0-5.875-2.636-5.875-5.875s2.635-5.875,5.875-5.875    c0.087,0,0.174,0.005,0.26,0.011l-0.668,5.989h6.281C313.645,59.487,311.035,62.055,307.838,62.055L307.838,62.055z"/>
		<path fill="#ED1C24" d="M307.838,50.43c0.04,0,0.08,0.001,0.121,0.003l-0.639,5.719l-0.03,0.278h0.279h6.013    c-0.131,3.055-2.658,5.5-5.744,5.5c-3.171,0-5.75-2.58-5.75-5.75S304.667,50.43,307.838,50.43 M307.838,50.18    c-3.314,0-6,2.688-6,6c0,3.314,2.686,6,6,6s6-2.686,6-6h-6.269l0.667-5.98C308.104,50.191,307.972,50.18,307.838,50.18    L307.838,50.18z"/>
	</g>
	<g>
		<path opacity="0.5" fill="#ED1C24" d="M307.666,75.218c-3.045-0.237-5.412-2.785-5.412-5.849c0-3.239,2.635-5.875,5.875-5.875    c3.238,0,5.875,2.636,5.875,5.875l0.117,0.024H308.5L307.666,75.218z"/>
		<path fill="#ED1C24" d="M308.129,63.619c3.137,0,5.695,2.524,5.748,5.649h-5.268h-0.217l-0.031,0.214l-0.803,5.601    c-2.923-0.288-5.18-2.754-5.18-5.714C302.379,66.199,304.958,63.619,308.129,63.619 M308.129,63.369c-3.314,0-6,2.688-6,6    c0,3.195,2.496,5.797,5.645,5.982l0.836-5.833h5.512c0.001-0.05,0.008-0.099,0.008-0.149    C314.129,66.057,311.443,63.369,308.129,63.369L308.129,63.369z"/>
	</g>
	<g>
		<path opacity="0.5" fill="#ED1C24" d="M289.058,78.141c-0.325-0.647-0.496-1.369-0.496-2.096c0-2.578,2.097-4.675,4.675-4.675    s4.675,2.097,4.675,4.675c0,0.56-0.1,1.108-0.296,1.633l-4.563-1.702L289.058,78.141z"/>
		<path fill="#ED1C24" d="M293.237,71.495c2.509,0,4.55,2.041,4.55,4.55c0,0.503-0.083,0.997-0.246,1.472l-4.391-1.638l-0.106-0.04    l-0.1,0.054l-3.83,2.075c-0.279-0.6-0.426-1.26-0.426-1.924C288.688,73.536,290.729,71.495,293.237,71.495 M293.237,71.245    c-2.651,0-4.8,2.15-4.8,4.8c0,0.82,0.207,1.592,0.568,2.267l4.057-2.198l4.625,1.725c0.224-0.554,0.35-1.159,0.35-1.793    C298.037,73.395,295.889,71.245,293.237,71.245L293.237,71.245z"/>
	</g>
	<g>
		<path opacity="0.5" fill="#ED1C24" d="M261.576,96.449c-0.578,0-1.153-0.086-1.713-0.257l1.672-5.686l-5.256-2.463    c0.975-2.036,3.04-3.344,5.297-3.344c3.239,0,5.875,2.636,5.875,5.875S264.815,96.449,261.576,96.449L261.576,96.449z"/>
		<path fill="#ED1C24" d="M261.576,84.824c3.17,0,5.75,2.58,5.75,5.75s-2.58,5.75-5.75,5.75c-0.525,0-1.047-0.073-1.558-0.217    l1.606-5.463l0.061-0.206l-0.194-0.091l-5.043-2.364C257.423,86.056,259.409,84.824,261.576,84.824 M261.576,84.574    c-2.432,0-4.521,1.45-5.463,3.529l5.272,2.471l-1.676,5.7c0.588,0.192,1.215,0.3,1.867,0.3c3.314,0,6-2.686,6-6    C267.576,87.262,264.891,84.574,261.576,84.574L261.576,84.574z"/>
	</g>
	<g>
		<path opacity="0.5" fill="#ED1C24" d="M237.656,85.297c-0.839-1.042-1.3-2.345-1.3-3.683c0-3.239,2.636-5.875,5.875-5.875    s5.875,2.636,5.875,5.875c0,0.814-0.168,1.608-0.501,2.362l-5.354-2.509L237.656,85.297z"/>
		<path fill="#ED1C24" d="M242.231,75.864c3.17,0,5.75,2.58,5.75,5.75c0,0.755-0.148,1.492-0.44,2.194l-5.165-2.421l-0.144-0.067    l-0.122,0.102l-4.436,3.696c-0.771-1.002-1.193-2.237-1.193-3.504C236.481,78.444,239.061,75.864,242.231,75.864 M242.231,75.614    c-3.314,0-6,2.688-6,6c0,1.471,0.531,2.816,1.408,3.859l4.631-3.859l5.396,2.529c0.358-0.77,0.564-1.624,0.564-2.529    C248.231,78.302,245.545,75.614,242.231,75.614L242.231,75.614z"/>
	</g>
	<g>
		<path opacity="0.5" fill="#ED1C24" d="M229.457,73.17c-2.359,0-4.46-1.387-5.392-3.547l5.762-1.646l1.893-6.099    c2.199,0.917,3.613,3.029,3.613,5.417C235.332,70.535,232.696,73.17,229.457,73.17L229.457,73.17z"/>
		<path fill="#ED1C24" d="M231.797,62.048c2.08,0.925,3.41,2.957,3.41,5.248c0,3.17-2.58,5.75-5.75,5.75    c-2.261,0-4.28-1.302-5.219-3.341l5.559-1.588l0.13-0.037l0.04-0.129L231.797,62.048 M231.64,61.711l-1.913,6.164l-5.832,1.667    c0.89,2.2,3.042,3.753,5.562,3.753c3.314,0,6-2.686,6-6C235.457,64.754,233.874,62.585,231.64,61.711L231.64,61.711z"/>
	</g>
	<g>
		<path opacity="0.5" fill="#ED1C24" d="M235.243,56.055c-0.558,0-1.11-0.079-1.644-0.233l1.643-5.294l-3.851-4.775    c1.073-0.934,2.436-1.447,3.852-1.447c3.239,0,5.875,2.636,5.875,5.875S238.482,56.055,235.243,56.055L235.243,56.055z"/>
		<path fill="#ED1C24" d="M235.243,44.43c3.17,0,5.75,2.58,5.75,5.75s-2.58,5.75-5.75,5.75c-0.503,0-1.002-0.065-1.486-0.194    l1.584-5.108l0.04-0.127l-0.083-0.104l-3.732-4.628C232.601,44.903,233.897,44.43,235.243,44.43 M235.243,44.18    c-1.55,0-2.958,0.593-4.023,1.558l3.883,4.815l-1.66,5.351c0.568,0.178,1.173,0.275,1.8,0.275c3.314,0,6-2.686,6-6    C241.243,46.867,238.557,44.18,235.243,44.18L235.243,44.18z"/>
	</g>
	<g>
		<path opacity="0.5" fill="#ED1C24" d="M250.581,40.499c-3.239,0-5.875-2.636-5.875-5.875c0-0.951,0.233-1.893,0.676-2.734    l5.289,3.305l3.401-5.291c1.495,1.108,2.384,2.862,2.384,4.72C256.456,37.863,253.82,40.499,250.581,40.499L250.581,40.499z"/>
		<path fill="#ED1C24" d="M254.104,30.085c1.399,1.088,2.227,2.766,2.227,4.539c0,3.17-2.58,5.75-5.75,5.75s-5.75-2.58-5.75-5.75    c0-0.885,0.207-1.763,0.601-2.556l5.069,3.167l0.209,0.131l0.134-0.208L254.104,30.085 M254.039,29.725l-3.406,5.298l-5.297-3.31    c-0.479,0.862-0.755,1.854-0.755,2.91c0,3.314,2.686,6,6,6s6-2.686,6-6C256.581,32.599,255.575,30.812,254.039,29.725    L254.039,29.725z"/>
	</g>
	<g>
		<path opacity="0.5" fill="#8DC63F" d="M220.394,32.115l5.918-1.303c0.204,0.608,0.307,1.232,0.307,1.856    c0,1.759-0.775,3.4-2.132,4.523L220.394,32.115z"/>
		<path fill="#8DC63F" d="M226.229,30.958c0.176,0.562,0.266,1.136,0.266,1.71c0,1.679-0.722,3.249-1.99,4.345l-3.886-4.82    L226.229,30.958 M226.395,30.666l-6.225,1.371l4.299,5.331c1.385-1.099,2.275-2.793,2.275-4.699    C226.744,31.965,226.617,31.292,226.395,30.666L226.395,30.666z"/>
	</g>
	<g>
		<path opacity="0.5" fill="#8DC63F" d="M274.077,41.793l5.479-1.567c0.164,0.548,0.247,1.113,0.247,1.682    c0,2.655-1.772,4.965-4.325,5.661L274.077,41.793z"/>
		<path fill="#8DC63F" d="M279.469,40.38c0.138,0.499,0.208,1.012,0.208,1.527c0,2.556-1.677,4.784-4.109,5.505l-1.341-5.532    L279.469,40.38 M279.638,40.072l-5.711,1.634l1.458,6.016c2.608-0.652,4.542-3.003,4.542-5.814    C279.927,41.267,279.824,40.651,279.638,40.072L279.638,40.072z"/>
	</g>
	<g>
		<path opacity="0.5" fill="#8DC63F" d="M273.13,45.476c-2.249,0-4.078-1.83-4.078-4.078c0-1.662,1.036-3.167,2.588-3.78    l2.176,4.146l0.826,3.42C274.157,45.377,273.649,45.476,273.13,45.476L273.13,45.476z"/>
		<path fill="#8DC63F" d="M271.582,37.776l2.109,4.018l0.803,3.312c-0.439,0.162-0.896,0.244-1.364,0.244    c-2.18,0-3.953-1.773-3.953-3.953C269.177,39.824,270.135,38.395,271.582,37.776 M271.699,37.461    c-1.614,0.587-2.772,2.121-2.772,3.936c0,2.322,1.881,4.203,4.203,4.203c0.589,0,1.149-0.124,1.658-0.342l-0.861-3.553    L271.699,37.461L271.699,37.461z"/>
	</g>
	<g>
		<path opacity="0.5" fill="#ED1C24" d="M283.483,87.004c-3.239,0-5.875-2.636-5.875-5.875c0-2.678,1.791-4.993,4.371-5.674    l1.382,5.703l3.773,4.573C286.1,86.553,284.808,87.004,283.483,87.004L283.483,87.004z"/>
		<path fill="#ED1C24" d="M281.889,75.61l1.352,5.578l0.014,0.056l0.037,0.044l3.665,4.423c-0.996,0.754-2.219,1.167-3.473,1.167    c-3.17,0-5.75-2.58-5.75-5.75C277.733,78.551,279.43,76.316,281.889,75.61 M282.071,75.303c-2.631,0.636-4.588,3-4.588,5.826    c0,3.314,2.686,6,6,6c1.456,0,2.789-0.519,3.828-1.38l-3.828-4.62L282.071,75.303L282.071,75.303z"/>
	</g>
	<g>
		<path opacity="0.5" fill="#8DC63F" d="M282.223,75.396c0.427-0.095,0.85-0.143,1.261-0.143c2.114,0,4.059,1.133,5.105,2.965    l-5.022,2.722L282.223,75.396z"/>
		<path fill="#8DC63F" d="M283.483,75.379c2.026,0,3.894,1.063,4.932,2.792l-4.766,2.583l-1.275-5.262    C282.75,75.417,283.122,75.379,283.483,75.379 M283.483,75.129c-0.487,0-0.958,0.064-1.412,0.174l1.412,5.826l5.276-2.86    C287.743,76.399,285.762,75.129,283.483,75.129L283.483,75.129z"/>
	</g>
	<g>
		<path opacity="0.5" fill="#8DC63F" d="M257.017,105.026c1.888,0.516,3.414,1.974,4.024,3.848l-5.553,1.352L257.017,105.026z"/>
		<path fill="#8DC63F" d="M257.102,105.18c1.75,0.52,3.167,1.872,3.777,3.604l-5.21,1.269L257.102,105.18 M256.931,104.874    l-1.624,5.524l5.894-1.435C260.596,106.956,258.979,105.388,256.931,104.874L256.931,104.874z"/>
	</g>
	<g>
		<path opacity="0.5" fill="#8DC63F" d="M289.687,112.367c1.123-1.432,2.798-2.25,4.615-2.25c0.867,0,1.707,0.189,2.5,0.564    l-2.349,4.908L289.687,112.367z"/>
		<path fill="#8DC63F" d="M294.302,110.242c0.807,0,1.59,0.168,2.332,0.5l-0.367,0.768l-1.864,3.895l-4.534-3.064    C290.967,111.003,292.568,110.242,294.302,110.242 M294.302,109.992c-1.964,0-3.701,0.947-4.795,2.405l4.996,3.377l1.989-4.157    l0.476-0.994C296.163,110.223,295.261,109.992,294.302,109.992L294.302,109.992z"/>
	</g>
	<g>
		<path opacity="0.5" fill="#ED1C24" d="M277.551,104.769l-5.785,1.429c-0.104-0.447-0.157-0.892-0.157-1.324    c0-3.239,2.636-5.875,5.875-5.875s5.875,2.636,5.875,5.875c0,1.078-0.297,2.131-0.861,3.054L277.551,104.769z"/>
		<path fill="#ED1C24" d="M277.483,99.124c3.17,0,5.75,2.58,5.75,5.75c0,1.013-0.268,2.003-0.777,2.879l-4.838-3.09l-0.091-0.058    l-0.105,0.027l-5.562,1.412c-0.083-0.395-0.126-0.788-0.126-1.17C271.733,101.704,274.313,99.124,277.483,99.124 M277.483,98.874    c-3.314,0-6,2.688-6,6c0,0.51,0.07,1.002,0.19,1.475l5.81-1.475l5.053,3.227c0.597-0.932,0.947-2.038,0.947-3.227    C283.483,101.562,280.798,98.874,277.483,98.874L277.483,98.874z"/>
	</g>
	<polygon fill="none" stroke="#000000" points="283.483,81.129 273.927,41.706 261.383,17.812 250.63,34.538 239.158,27.369 220.167,31.551 235.1,50.068 229.725,67.39 208.818,73.364 231.516,90.089 242.268,81.129 261.383,90.089 255.41,110.398 277.483,104.874 294.235,115.774 300.807,102.036"/>
	<polygon fill="none" stroke="#000000" points="273.927,41.706 297.693,34.907 309.126,41.706 307.566,55.694 322.291,55.694 322.291,69.033 308.606,69.033 306.874,81.129 293.016,75.962 283.483,81.129"/>
	<line fill="none" stroke="#27AAE1" stroke-width="1.2" x1="284.139" y1="84.132" x2="272.905" y2="37.461"/>
	<g>
		<path d="M293.86,59.848c-0.372,0.192-1.151,0.384-2.135,0.384c-2.279,0-3.982-1.439-3.982-4.102c0-2.542,1.715-4.246,4.222-4.246    c0.996,0,1.643,0.216,1.919,0.36l-0.264,0.852c-0.384-0.192-0.948-0.336-1.619-0.336c-1.895,0-3.154,1.211-3.154,3.334    c0,1.991,1.139,3.25,3.094,3.25c0.648,0,1.295-0.132,1.715-0.336L293.86,59.848z"/>
	</g>
	<g>
		<path d="M255.659,59.054c0.456-0.108,1.187-0.18,1.907-0.18c1.043,0,1.715,0.18,2.207,0.588c0.419,0.312,0.684,0.792,0.684,1.427    c0,0.792-0.528,1.475-1.367,1.775v0.036c0.768,0.18,1.667,0.815,1.667,2.015c0,0.696-0.276,1.235-0.696,1.619    c-0.552,0.516-1.463,0.755-2.782,0.755c-0.72,0-1.271-0.048-1.619-0.096V59.054z M256.702,62.365h0.947    c1.091,0,1.739-0.588,1.739-1.367c0-0.936-0.708-1.319-1.763-1.319c-0.48,0-0.755,0.036-0.923,0.072V62.365z M256.702,66.227    c0.216,0.036,0.503,0.048,0.875,0.048c1.079,0,2.075-0.396,2.075-1.571c0-1.091-0.947-1.559-2.087-1.559h-0.863V66.227z"/>
	</g>
</g>
<g>
	<polygon fill="#FBB040" fill-opacity="0.2" points="427.951,81.129 405.851,90.089 399.878,110.398 422.576,104.874 438.704,115.774 445.274,102.036"/>
	<polygon fill="#7F3F98" fill-opacity="0.15" points="405.851,90.089 386.736,81.129 375.984,90.089 353.286,73.364 374.193,67.39 379.568,50.068 364.636,31.551 383.626,27.369 395.099,34.538 405.851,17.812 418.395,41.706 427.951,81.129"/>
	<path fill="#FFFFFF" stroke="#000000" d="M427.951,81.129"/>
	<path fill="#FFFFFF" stroke="#000000" d="M427.949,80.644"/>
	<path fill="none" stroke="#8DC63F" d="M399.213,28.138"/>
	<path fill="none" stroke="#8DC63F" d="M388.379,30.338"/>
	<g>
		<path opacity="0.5" fill="#8DC63F" d="M383.047,33.406c-2.713,0-5.097-1.895-5.717-4.523l6.323-1.392l4.537,2.876    C387.153,32.245,385.193,33.406,383.047,33.406L383.047,33.406z"/>
		<path fill="#8DC63F" d="M383.58,27.635l4.442,2.775c-1.029,1.777-2.914,2.871-4.976,2.871c-2.612,0-4.914-1.795-5.564-4.304    L383.58,27.635 M383.626,27.369l-6.445,1.419c0.578,2.71,2.983,4.743,5.866,4.743c2.305,0,4.304-1.301,5.309-3.207L383.626,27.369    L383.626,27.369z"/>
	</g>
	<g>
		<path opacity="0.5" fill="#8DC63F" d="M442.547,107.449c-2.35-0.828-3.92-3.039-3.92-5.537c0-1.885,0.909-3.656,2.438-4.761    l4.062,4.903L442.547,107.449z"/>
		<path fill="#8DC63F" d="M441.045,97.322l3.936,4.75l-2.498,5.221c-2.24-0.838-3.73-2.974-3.73-5.381    C438.752,100.106,439.604,98.407,441.045,97.322 M441.088,96.982c-1.562,1.083-2.586,2.887-2.586,4.93    c0,2.653,1.723,4.899,4.109,5.691l2.664-5.568L441.088,96.982L441.088,96.982z"/>
	</g>
	<g>
		<path opacity="0.5" fill="#8DC63F" d="M445.634,78.867c0.666-2.602,2.988-4.41,5.684-4.41c0.266,0,0.542,0.022,0.844,0.067    l-0.921,6.434L445.634,78.867z"/>
		<path fill="#8DC63F" d="M451.317,74.582c0.223,0,0.454,0.016,0.702,0.048l-0.881,6.156l-5.355-1.997    C446.472,76.301,448.717,74.582,451.317,74.582 M451.317,74.332c-2.836,0-5.206,1.97-5.832,4.613l5.856,2.184l0.961-6.709    C451.982,74.367,451.654,74.332,451.317,74.332L451.317,74.332z"/>
	</g>
	<g>
		<path opacity="0.5" fill="#8DC63F" d="M460.886,68.908l-0.001-0.024c0-3.198,2.568-5.807,5.75-5.874v5.897H460.886z"/>
		<path fill="#8DC63F" d="M466.51,63.139v5.644h-5.499C461.063,65.742,463.488,63.269,466.51,63.139 M466.76,62.884    c-3.314,0-6,2.688-6,6c0,0.05,0.006,0.099,0.007,0.149h5.993V62.884L466.76,62.884z"/>
	</g>
	<g>
		<path opacity="0.5" fill="#8DC63F" d="M466.635,62.103c-3.182-0.066-5.75-2.676-5.75-5.874c0-0.138,0.007-0.274,0.017-0.41h5.733    V62.103z"/>
		<path fill="#8DC63F" d="M466.51,55.944v6.029c-3.055-0.131-5.5-2.658-5.5-5.745c0-0.096,0.003-0.19,0.009-0.285H466.51     M466.76,55.694h-5.974c-0.016,0.176-0.026,0.354-0.026,0.535c0,3.314,2.686,6,6,6V55.694L466.76,55.694z"/>
	</g>
	<g>
		<path opacity="0.5" fill="#8DC63F" d="M371.132,86.358c1.098-1.622,2.907-2.586,4.863-2.586c1.831,0,3.515,0.829,4.639,2.28    l-4.654,3.878L371.132,86.358z"/>
		<path fill="#8DC63F" d="M375.995,83.897c1.751,0,3.365,0.776,4.465,2.137l-4.485,3.738l-4.671-3.442    C372.384,84.802,374.121,83.897,375.995,83.897 M375.995,83.647c-2.111,0-3.964,1.093-5.033,2.741l5.022,3.701l4.821-4.018    C379.712,84.603,377.968,83.647,375.995,83.647L375.995,83.647z"/>
	</g>
	<g>
		<path opacity="0.5" fill="#8DC63F" d="M353.565,73.414l6.374-1.821c0.121,0.479,0.183,0.961,0.183,1.434    c0,1.511-0.57,2.939-1.607,4.035L353.565,73.414z"/>
		<path fill="#8DC63F" d="M359.849,71.749c0.099,0.428,0.148,0.856,0.148,1.277c0,1.441-0.53,2.807-1.498,3.868l-4.655-3.43    L359.849,71.749 M360.028,71.438l-6.742,1.926l5.242,3.863c1.062-1.083,1.719-2.564,1.719-4.201    C360.247,72.476,360.167,71.944,360.028,71.438L360.028,71.438z"/>
	</g>
	<g>
		<path opacity="0.5" fill="#8DC63F" d="M452.796,47.746c-2.96-0.309-5.262-2.85-5.262-5.839c0-1.109,0.312-2.187,0.902-3.124    l5.024,2.988L452.796,47.746z"/>
		<path fill="#8DC63F" d="M448.479,38.954l4.849,2.884l-0.642,5.77c-2.838-0.359-5.026-2.816-5.026-5.7    C447.659,40.862,447.941,39.847,448.479,38.954 M448.396,38.615c-0.623,0.946-0.987,2.076-0.987,3.292    c0,3.145,2.419,5.719,5.497,5.975l0.688-6.176L448.396,38.615L448.396,38.615z"/>
	</g>
	<g>
		<path opacity="0.5" fill="#8DC63F" d="M442.123,41.063c-2.687,0-5.005-1.799-5.68-4.391l5.753-1.646l5.045,3.045    C446.199,39.92,444.248,41.063,442.123,41.063L442.123,41.063z"/>
		<path fill="#8DC63F" d="M442.127,35.177l4.944,2.94c-1.035,1.746-2.909,2.821-4.948,2.821c-2.589,0-4.828-1.707-5.526-4.179    L442.127,35.177 M442.162,34.907l-5.869,1.679c0.631,2.639,2.998,4.603,5.83,4.603c2.287,0,4.273-1.279,5.286-3.161    L442.162,34.907L442.162,34.907z"/>
	</g>
	<g>
		<path opacity="0.5" fill="#8DC63F" d="M406.213,23.687c-1.193,0-2.34-0.358-3.324-1.037l2.952-4.59l2.699,5.142    C407.798,23.524,407.016,23.687,406.213,23.687L406.213,23.687z"/>
		<path fill="#8DC63F" d="M405.83,18.308l2.536,4.832c-0.689,0.28-1.412,0.422-2.153,0.422c-1.127,0-2.212-0.327-3.153-0.947    L405.83,18.308 M405.852,17.812l-3.133,4.872c0.984,0.708,2.189,1.128,3.494,1.128c0.893,0,1.738-0.2,2.5-0.55L405.852,17.812    L405.852,17.812z"/>
	</g>
	<g>
		<path opacity="0.5" fill="#ED1C24" d="M452.303,61.569c-3.239,0-5.875-2.636-5.875-5.875s2.636-5.875,5.875-5.875    c0.088,0,0.174,0.005,0.26,0.011l-0.667,5.989h6.281C458.109,59.001,455.501,61.569,452.303,61.569L452.303,61.569z"/>
		<path fill="#ED1C24" d="M452.303,49.944c0.041,0,0.081,0.001,0.121,0.003l-0.637,5.719l-0.031,0.278h0.279h6.012    c-0.131,3.055-2.657,5.5-5.744,5.5c-3.171,0-5.75-2.58-5.75-5.75S449.132,49.944,452.303,49.944 M452.303,49.694    c-3.314,0-6,2.688-6,6c0,3.314,2.686,6,6,6s6-2.686,6-6h-6.268l0.666-5.98C452.569,49.706,452.438,49.694,452.303,49.694    L452.303,49.694z"/>
	</g>
	<g>
		<path opacity="0.5" fill="#ED1C24" d="M452.132,74.733c-3.045-0.237-5.413-2.785-5.413-5.849c0-3.239,2.636-5.875,5.875-5.875    s5.875,2.636,5.875,5.875l0.118,0.024h-5.621L452.132,74.733z"/>
		<path fill="#ED1C24" d="M452.594,63.134c3.137,0,5.695,2.524,5.749,5.649h-5.269h-0.217l-0.03,0.214l-0.802,5.601    c-2.924-0.288-5.182-2.754-5.182-5.714C446.844,65.713,449.423,63.134,452.594,63.134 M452.594,62.884c-3.314,0-6,2.688-6,6    c0,3.195,2.497,5.797,5.646,5.982l0.835-5.833h5.513c0.001-0.05,0.007-0.099,0.007-0.149    C458.594,65.571,455.908,62.884,452.594,62.884L452.594,62.884z"/>
	</g>
	<g>
		<path opacity="0.5" fill="#ED1C24" d="M433.524,77.656c-0.325-0.646-0.496-1.369-0.496-2.096c0-2.578,2.097-4.675,4.675-4.675    s4.675,2.097,4.675,4.675c0,0.559-0.1,1.107-0.297,1.633l-4.562-1.702L433.524,77.656z"/>
		<path fill="#ED1C24" d="M437.703,71.01c2.509,0,4.55,2.041,4.55,4.55c0,0.502-0.083,0.996-0.246,1.472l-4.392-1.638l-0.106-0.04    l-0.1,0.054l-3.83,2.075c-0.279-0.599-0.426-1.259-0.426-1.924C433.153,73.051,435.194,71.01,437.703,71.01 M437.703,70.76    c-2.651,0-4.8,2.15-4.8,4.8c0,0.82,0.206,1.592,0.568,2.267l4.057-2.198l4.625,1.725c0.224-0.554,0.35-1.159,0.35-1.793    C442.503,72.91,440.354,70.76,437.703,70.76L437.703,70.76z"/>
	</g>
	<g>
		<path opacity="0.5" fill="#ED1C24" d="M382.122,84.812c-0.839-1.041-1.3-2.344-1.3-3.683c0-3.239,2.636-5.875,5.875-5.875    s5.875,2.636,5.875,5.875c0,0.812-0.169,1.606-0.501,2.362l-5.354-2.509L382.122,84.812z"/>
		<path fill="#ED1C24" d="M386.697,75.379c3.171,0,5.75,2.58,5.75,5.75c0,0.753-0.148,1.49-0.44,2.194l-5.164-2.421l-0.145-0.067    l-0.122,0.102l-4.436,3.696c-0.771-1.002-1.193-2.237-1.193-3.504C380.947,77.958,383.526,75.379,386.697,75.379 M386.697,75.129    c-3.314,0-6,2.688-6,6c0,1.471,0.53,2.816,1.408,3.859l4.631-3.859l5.396,2.529c0.357-0.77,0.564-1.624,0.564-2.529    C392.697,77.816,390.012,75.129,386.697,75.129L386.697,75.129z"/>
	</g>
	<g>
		<path opacity="0.5" fill="#ED1C24" d="M373.923,72.685c-2.358,0-4.46-1.387-5.392-3.547l5.762-1.646l1.893-6.099    c2.199,0.917,3.612,3.029,3.612,5.417C379.798,70.049,377.162,72.685,373.923,72.685L373.923,72.685z"/>
		<path fill="#ED1C24" d="M376.264,61.562c2.08,0.925,3.409,2.957,3.409,5.248c0,3.17-2.579,5.75-5.75,5.75    c-2.261,0-4.28-1.302-5.219-3.341l5.558-1.588l0.13-0.037l0.04-0.129L376.264,61.562 M376.106,61.226l-1.913,6.164l-5.832,1.667    c0.89,2.2,3.042,3.753,5.562,3.753c3.314,0,6-2.686,6-6C379.923,64.269,378.339,62.1,376.106,61.226L376.106,61.226z"/>
	</g>
	<g>
		<path opacity="0.5" fill="#ED1C24" d="M379.708,55.569c-0.558,0-1.109-0.079-1.644-0.233l1.643-5.294l-3.851-4.775    c1.073-0.934,2.437-1.447,3.852-1.447c3.24,0,5.876,2.636,5.876,5.875S382.948,55.569,379.708,55.569L379.708,55.569z"/>
		<path fill="#ED1C24" d="M379.708,43.944c3.171,0,5.751,2.58,5.751,5.75s-2.58,5.75-5.751,5.75c-0.503,0-1.001-0.065-1.485-0.194    l1.584-5.108l0.04-0.127l-0.084-0.104l-3.732-4.628C377.066,44.418,378.363,43.944,379.708,43.944 M379.708,43.694    c-1.55,0-2.958,0.593-4.023,1.558l3.884,4.815l-1.66,5.351c0.568,0.178,1.173,0.275,1.8,0.275c3.315,0,6.001-2.686,6.001-6    C385.709,46.382,383.023,43.694,379.708,43.694L379.708,43.694z"/>
	</g>
	<g>
		<path opacity="0.5" fill="#ED1C24" d="M395.047,40.013c-3.239,0-5.875-2.636-5.875-5.875c0-0.951,0.233-1.893,0.677-2.734    l5.288,3.305l3.401-5.291c1.495,1.108,2.384,2.862,2.384,4.72C400.922,37.377,398.286,40.013,395.047,40.013L395.047,40.013z"/>
		<path fill="#ED1C24" d="M398.569,29.6c1.399,1.088,2.228,2.766,2.228,4.539c0,3.17-2.579,5.75-5.75,5.75s-5.75-2.58-5.75-5.75    c0-0.885,0.207-1.763,0.601-2.556l5.068,3.167l0.21,0.131l0.133-0.208L398.569,29.6 M398.504,29.24l-3.405,5.298l-5.297-3.31    c-0.479,0.862-0.755,1.854-0.755,2.91c0,3.314,2.686,6,6,6s6-2.686,6-6C401.047,32.114,400.041,30.327,398.504,29.24    L398.504,29.24z"/>
	</g>
	<g>
		<path opacity="0.5" fill="#8DC63F" d="M364.859,31.629l5.919-1.303c0.203,0.607,0.307,1.231,0.307,1.856    c0,1.759-0.775,3.4-2.132,4.523L364.859,31.629z"/>
		<path fill="#8DC63F" d="M370.694,30.473c0.177,0.561,0.266,1.135,0.266,1.71c0,1.679-0.722,3.249-1.99,4.345l-3.886-4.82    L370.694,30.473 M370.86,30.18l-6.225,1.371l4.299,5.331c1.385-1.099,2.275-2.793,2.275-4.699    C371.21,31.479,371.083,30.807,370.86,30.18L370.86,30.18z"/>
	</g>
	<g>
		<path opacity="0.5" fill="#8DC63F" d="M418.542,41.308l5.479-1.567c0.164,0.547,0.247,1.112,0.247,1.682    c0,2.655-1.771,4.965-4.324,5.661L418.542,41.308z"/>
		<path fill="#8DC63F" d="M423.935,39.895c0.139,0.499,0.208,1.011,0.208,1.527c0,2.556-1.677,4.784-4.108,5.505l-1.342-5.532    L423.935,39.895 M424.104,39.586l-5.711,1.634l1.459,6.016c2.607-0.652,4.541-3.003,4.541-5.814    C424.393,40.781,424.29,40.166,424.104,39.586L424.104,39.586z"/>
	</g>
	<g>
		<path opacity="0.5" fill="#8DC63F" d="M417.596,44.99c-2.249,0-4.078-1.83-4.078-4.078c0-1.662,1.035-3.167,2.587-3.78    l2.178,4.146l0.825,3.42C418.623,44.892,418.115,44.99,417.596,44.99L417.596,44.99z"/>
		<path fill="#8DC63F" d="M416.047,37.291l2.11,4.018l0.803,3.312c-0.439,0.162-0.897,0.244-1.364,0.244    c-2.18,0-3.953-1.773-3.953-3.953C413.643,39.338,414.601,37.91,416.047,37.291 M416.164,36.976    c-1.613,0.587-2.771,2.121-2.771,3.936c0,2.322,1.881,4.203,4.203,4.203c0.59,0,1.148-0.124,1.658-0.342l-0.861-3.553    L416.164,36.976L416.164,36.976z"/>
	</g>
	<g>
		<path opacity="0.5" fill="#8DC63F" d="M426.688,74.911c0.426-0.095,0.85-0.143,1.261-0.143c2.114,0,4.059,1.133,5.104,2.965    l-5.021,2.722L426.688,74.911z"/>
		<path fill="#8DC63F" d="M427.949,74.894c2.026,0,3.894,1.063,4.932,2.792l-4.766,2.583l-1.275-5.262    C427.216,74.932,427.588,74.894,427.949,74.894 M427.949,74.644c-0.487,0-0.959,0.064-1.412,0.174l1.412,5.826l5.275-2.86    C432.209,75.914,430.228,74.644,427.949,74.644L427.949,74.644z"/>
	</g>
	<g>
		<path opacity="0.5" fill="#8DC63F" d="M405.716,95.964c-0.463,0-0.938-0.06-1.41-0.177l1.647-5.604l5.268-2.136    c0.246,0.66,0.37,1.347,0.37,2.042C411.591,93.328,408.955,95.964,405.716,95.964L405.716,95.964z"/>
		<path fill="#8DC63F" d="M411.147,88.211c0.211,0.608,0.318,1.239,0.318,1.877c0,3.17-2.579,5.75-5.75,5.75    c-0.412,0-0.832-0.048-1.253-0.144l1.594-5.42L411.147,88.211 M411.292,87.883l-5.441,2.206l-1.701,5.786    c0.5,0.135,1.023,0.214,1.566,0.214c3.314,0,6-2.686,6-6C411.716,89.309,411.562,88.566,411.292,87.883L411.292,87.883z"/>
	</g>
	<g>
		<path opacity="0.5" fill="#8DC63F" d="M402.268,88.271c0.776-1.165,2.055-1.856,3.448-1.856c1.498,0,2.868,0.813,3.608,2.13    l-3.47,1.407L402.268,88.271z"/>
		<path fill="#8DC63F" d="M405.716,86.54c1.405,0,2.695,0.738,3.428,1.944l-3.286,1.333l-3.403-1.596    C403.214,87.163,404.413,86.54,405.716,86.54 M405.716,86.29c-1.538,0-2.876,0.817-3.631,2.034l3.766,1.765l3.65-1.48    C408.787,87.237,407.369,86.29,405.716,86.29L405.716,86.29z"/>
	</g>
	<g>
		<path opacity="0.5" fill="#8DC63F" d="M423.129,82.949c-0.202-0.57-0.304-1.16-0.304-1.753c0-2.339,1.55-4.405,3.785-5.069    l1.194,4.927L423.129,82.949z"/>
		<path fill="#8DC63F" d="M426.521,76.286l1.137,4.693l-4.453,1.805c-0.169-0.518-0.254-1.051-0.254-1.588    C422.95,78.956,424.406,76.973,426.521,76.286 M426.701,75.971c-2.305,0.624-4.001,2.724-4.001,5.225    c0,0.676,0.129,1.321,0.355,1.918l4.896-1.985L426.701,75.971L426.701,75.971z"/>
	</g>
	<g>
		<path opacity="0.5" fill="#8DC63F" d="M427.901,87.588c-2.56,0-4.801-1.614-5.612-4.029l5.624-2.28l3.957,4.776    C430.777,87.044,429.372,87.588,427.901,87.588L427.901,87.588z"/>
		<path fill="#8DC63F" d="M427.875,81.429l3.822,4.612c-1.058,0.918-2.396,1.422-3.796,1.422c-2.466,0-4.63-1.531-5.456-3.833    L427.875,81.429 M427.951,81.129l-5.817,2.358c0.772,2.45,3.062,4.226,5.768,4.226c1.604,0,3.059-0.628,4.141-1.647    L427.951,81.129L427.951,81.129z"/>
	</g>
	<g>
		<path opacity="0.5" fill="#8DC63F" d="M401.588,105.026c1.889,0.516,3.414,1.974,4.024,3.848l-5.554,1.352L401.588,105.026z"/>
		<path fill="#8DC63F" d="M401.673,105.18c1.751,0.52,3.167,1.872,3.777,3.604l-5.21,1.269L401.673,105.18 M401.502,104.874    l-1.624,5.524l5.894-1.435C405.167,106.956,403.551,105.388,401.502,104.874L401.502,104.874z"/>
	</g>
	<g>
		<path opacity="0.5" fill="#8DC63F" d="M433.887,112.367c1.124-1.432,2.798-2.25,4.615-2.25c0.867,0,1.707,0.189,2.5,0.564    l-2.349,4.908L433.887,112.367z"/>
		<path fill="#8DC63F" d="M438.502,110.242c0.807,0,1.59,0.168,2.332,0.5l-0.367,0.768l-1.864,3.895l-4.533-3.064    C435.168,111.003,436.769,110.242,438.502,110.242 M438.502,109.992c-1.964,0-3.701,0.947-4.795,2.405l4.996,3.377l1.989-4.157    l0.476-0.994C440.363,110.223,439.461,109.992,438.502,109.992L438.502,109.992z"/>
	</g>
	<g>
		<path opacity="0.5" fill="#ED1C24" d="M422.643,104.791l-4.654,1.142c-0.08-0.351-0.12-0.699-0.12-1.037    c0-2.596,2.111-4.708,4.707-4.708s4.708,2.112,4.708,4.708c0,0.855-0.233,1.691-0.677,2.426L422.643,104.791z"/>
		<path fill="#ED1C24" d="M422.575,100.314c2.527,0,4.583,2.056,4.583,4.583c0,0.79-0.205,1.563-0.595,2.25l-3.854-2.461    l-0.092-0.058l-0.104,0.027l-4.431,1.125c-0.06-0.299-0.09-0.595-0.09-0.882C417.993,102.37,420.049,100.314,422.575,100.314     M422.575,100.064c-2.669,0-4.832,2.165-4.832,4.833c0,0.411,0.057,0.808,0.152,1.188l4.68-1.188l4.07,2.599    c0.48-0.75,0.763-1.641,0.763-2.599C427.408,102.229,425.245,100.064,422.575,100.064L422.575,100.064z"/>
	</g>
	<polygon fill="none" stroke="#000000" points="405.851,90.089 386.736,81.129 375.984,90.089 353.286,73.364 374.193,67.39 379.568,50.068 364.636,31.551 383.626,27.369 395.099,34.538 405.851,17.812 418.395,41.706 427.951,81.129"/>
	<polygon fill="none" stroke="#000000" points="418.395,41.706 442.161,34.907 453.594,41.706 452.035,55.694 466.759,55.694 466.759,69.033 453.074,69.033 451.343,81.129 437.484,75.962 427.951,81.129"/>
	<polygon fill="none" stroke="#000000" points="427.951,81.129 405.851,90.089 399.878,110.398 422.576,104.874 438.704,115.774 445.274,102.036"/>
	<line fill="none" stroke="#27AAE1" stroke-width="1.2" x1="403.276" y1="91.061" x2="429.117" y2="80.644"/>
	<g>
		<path d="M422.203,91.256c0.637-0.108,1.392-0.18,2.219-0.18c1.5,0,2.566,0.36,3.274,1.007c0.731,0.66,1.151,1.595,1.151,2.902    c0,1.319-0.42,2.399-1.163,3.143c-0.768,0.755-2.015,1.163-3.586,1.163c-0.756,0-1.367-0.036-1.896-0.096V91.256z M423.247,98.404    c0.264,0.036,0.647,0.048,1.056,0.048c2.242,0,3.441-1.247,3.441-3.43c0.012-1.907-1.066-3.118-3.273-3.118    c-0.54,0-0.947,0.048-1.224,0.108V98.404z"/>
	</g>
	<g>
		<path d="M404.298,59.31h-3.13v2.915h3.502V63.1h-4.558v-8.083h4.378v0.875h-3.322v2.555h3.13V59.31z"/>
	</g>
</g>
<g>
	<polygon fill="#FBB040" fill-opacity="0.2" stroke="#000000" points="567.044,104.874 583.172,115.774 589.742,102.036 572.419,81.129"/>
	<polygon fill="#7F3F98" fill-opacity="0.15" points="572.419,81.129 550.318,90.089 544.346,110.398 567.044,104.874"/>
	<path fill="#FFFFFF" stroke="#000000" d="M572.419,81.129"/>
	<path fill="#FFFFFF" stroke="#000000" d="M572.417,80.644"/>
	<path fill="none" stroke="#8DC63F" d="M543.681,28.138"/>
	<path fill="none" stroke="#8DC63F" d="M532.847,30.338"/>
	<g>
		<path opacity="0.5" fill="#8DC63F" d="M527.515,33.406c-2.713,0-5.097-1.895-5.717-4.523l6.323-1.392l4.537,2.876    C531.621,32.245,529.661,33.406,527.515,33.406L527.515,33.406z"/>
		<path fill="#8DC63F" d="M528.048,27.635l4.442,2.775c-1.029,1.777-2.914,2.871-4.976,2.871c-2.612,0-4.914-1.795-5.564-4.304    L528.048,27.635 M528.094,27.369l-6.445,1.419c0.578,2.71,2.983,4.743,5.866,4.743c2.305,0,4.304-1.301,5.309-3.207    L528.094,27.369L528.094,27.369z"/>
	</g>
	<g>
		<path opacity="0.5" fill="#8DC63F" d="M587.015,107.449c-2.35-0.828-3.92-3.039-3.92-5.537c0-1.885,0.909-3.656,2.438-4.761    l4.062,4.903L587.015,107.449z"/>
		<path fill="#8DC63F" d="M585.513,97.322l3.936,4.75l-2.498,5.221c-2.24-0.838-3.73-2.974-3.73-5.381    C583.22,100.106,584.072,98.407,585.513,97.322 M585.556,96.982c-1.562,1.083-2.586,2.887-2.586,4.93    c0,2.653,1.723,4.899,4.109,5.691l2.664-5.568L585.556,96.982L585.556,96.982z"/>
	</g>
	<g>
		<path opacity="0.5" fill="#8DC63F" d="M590.102,78.867c0.666-2.602,2.988-4.41,5.684-4.41c0.266,0,0.542,0.022,0.844,0.067    l-0.921,6.434L590.102,78.867z"/>
		<path fill="#8DC63F" d="M595.785,74.582c0.223,0,0.454,0.016,0.703,0.048l-0.882,6.156l-5.355-1.997    C590.939,76.301,593.185,74.582,595.785,74.582 M595.785,74.332c-2.836,0-5.206,1.97-5.832,4.613l5.856,2.184l0.961-6.709    C596.45,74.367,596.122,74.332,595.785,74.332L595.785,74.332z"/>
	</g>
	<g>
		<path opacity="0.5" fill="#8DC63F" d="M605.354,68.908l-0.001-0.024c0-3.198,2.568-5.807,5.75-5.874v5.897H605.354z"/>
		<path fill="#8DC63F" d="M610.978,63.139v5.644h-5.499C605.531,65.742,607.956,63.269,610.978,63.139 M611.228,62.884    c-3.314,0-6,2.688-6,6c0,0.05,0.006,0.099,0.007,0.149h5.993V62.884L611.228,62.884z"/>
	</g>
	<g>
		<path opacity="0.5" fill="#8DC63F" d="M611.103,62.103c-3.182-0.066-5.75-2.676-5.75-5.874c0-0.138,0.007-0.274,0.017-0.41h5.733    V62.103z"/>
		<path fill="#8DC63F" d="M610.978,55.944v6.029c-3.055-0.131-5.5-2.658-5.5-5.745c0-0.096,0.003-0.19,0.009-0.285H610.978     M611.228,55.694h-5.974c-0.016,0.176-0.026,0.354-0.026,0.535c0,3.314,2.686,6,6,6V55.694L611.228,55.694z"/>
	</g>
	<g>
		<path opacity="0.5" fill="#8DC63F" d="M515.6,86.358c1.098-1.622,2.907-2.586,4.863-2.586c1.831,0,3.515,0.829,4.639,2.28    l-4.654,3.878L515.6,86.358z"/>
		<path fill="#8DC63F" d="M520.463,83.897c1.751,0,3.365,0.776,4.465,2.137l-4.485,3.738l-4.671-3.442    C516.852,84.802,518.588,83.897,520.463,83.897 M520.463,83.647c-2.111,0-3.964,1.093-5.033,2.741l5.022,3.701l4.821-4.018    C524.18,84.603,522.436,83.647,520.463,83.647L520.463,83.647z"/>
	</g>
	<g>
		<path opacity="0.5" fill="#8DC63F" d="M498.033,73.414l6.374-1.821c0.121,0.479,0.183,0.961,0.183,1.434    c0,1.511-0.57,2.939-1.607,4.035L498.033,73.414z"/>
		<path fill="#8DC63F" d="M504.316,71.749c0.099,0.428,0.148,0.856,0.148,1.277c0,1.441-0.53,2.807-1.498,3.868l-4.655-3.43    L504.316,71.749 M504.496,71.438l-6.742,1.926l5.242,3.863c1.062-1.083,1.719-2.564,1.719-4.201    C504.715,72.476,504.635,71.944,504.496,71.438L504.496,71.438z"/>
	</g>
	<g>
		<path opacity="0.5" fill="#8DC63F" d="M597.264,47.746c-2.96-0.309-5.262-2.85-5.262-5.839c0-1.109,0.312-2.187,0.902-3.124    l5.024,2.988L597.264,47.746z"/>
		<path fill="#8DC63F" d="M592.946,38.954l4.849,2.884l-0.642,5.77c-2.838-0.359-5.026-2.816-5.026-5.7    C592.127,40.862,592.409,39.847,592.946,38.954 M592.864,38.615c-0.623,0.946-0.987,2.076-0.987,3.292    c0,3.145,2.419,5.719,5.497,5.975l0.688-6.176L592.864,38.615L592.864,38.615z"/>
	</g>
	<g>
		<path opacity="0.5" fill="#8DC63F" d="M586.591,41.063c-2.687,0-5.005-1.799-5.68-4.391l5.753-1.646l5.045,3.045    C590.667,39.92,588.717,41.063,586.591,41.063L586.591,41.063z"/>
		<path fill="#8DC63F" d="M586.595,35.177l4.944,2.94c-1.035,1.746-2.909,2.821-4.948,2.821c-2.589,0-4.828-1.707-5.526-4.179    L586.595,35.177 M586.63,34.907l-5.869,1.679c0.631,2.639,2.998,4.603,5.83,4.603c2.287,0,4.273-1.279,5.286-3.161L586.63,34.907    L586.63,34.907z"/>
	</g>
	<g>
		<path opacity="0.5" fill="#8DC63F" d="M550.681,23.687c-1.193,0-2.34-0.358-3.324-1.037l2.952-4.59l2.699,5.142    C552.266,23.524,551.483,23.687,550.681,23.687L550.681,23.687z"/>
		<path fill="#8DC63F" d="M550.298,18.308l2.536,4.832c-0.689,0.28-1.412,0.422-2.153,0.422c-1.127,0-2.212-0.327-3.153-0.947    L550.298,18.308 M550.319,17.812l-3.133,4.872c0.984,0.708,2.189,1.128,3.494,1.128c0.893,0,1.738-0.2,2.5-0.55L550.319,17.812    L550.319,17.812z"/>
	</g>
	<g>
		<path opacity="0.5" fill="#ED1C24" d="M596.771,61.569c-3.239,0-5.875-2.636-5.875-5.875s2.636-5.875,5.875-5.875    c0.088,0,0.174,0.005,0.26,0.011l-0.667,5.989h6.281C602.577,59.001,599.969,61.569,596.771,61.569L596.771,61.569z"/>
		<path fill="#ED1C24" d="M596.771,49.944c0.041,0,0.081,0.001,0.121,0.003l-0.637,5.719l-0.031,0.278h0.279h6.013    c-0.132,3.055-2.658,5.5-5.745,5.5c-3.171,0-5.75-2.58-5.75-5.75S593.6,49.944,596.771,49.944 M596.771,49.694    c-3.314,0-6,2.688-6,6c0,3.314,2.686,6,6,6s6-2.686,6-6h-6.268l0.666-5.98C597.037,49.706,596.905,49.694,596.771,49.694    L596.771,49.694z"/>
	</g>
	<g>
		<path opacity="0.5" fill="#ED1C24" d="M596.6,74.733c-3.045-0.237-5.413-2.785-5.413-5.849c0-3.239,2.636-5.875,5.875-5.875    s5.875,2.636,5.875,5.875l0.118,0.024h-5.621L596.6,74.733z"/>
		<path fill="#ED1C24" d="M597.062,63.134c3.137,0,5.695,2.524,5.749,5.649h-5.269h-0.217l-0.03,0.214l-0.802,5.601    c-2.924-0.288-5.182-2.754-5.182-5.714C591.312,65.713,593.891,63.134,597.062,63.134 M597.062,62.884c-3.314,0-6,2.688-6,6    c0,3.195,2.497,5.797,5.646,5.982l0.835-5.833h5.513c0.001-0.05,0.007-0.099,0.007-0.149    C603.062,65.571,600.376,62.884,597.062,62.884L597.062,62.884z"/>
	</g>
	<g>
		<path opacity="0.5" fill="#ED1C24" d="M577.992,77.656c-0.325-0.646-0.496-1.369-0.496-2.096c0-2.578,2.097-4.675,4.675-4.675    s4.675,2.097,4.675,4.675c0,0.559-0.1,1.107-0.297,1.633l-4.562-1.702L577.992,77.656z"/>
		<path fill="#ED1C24" d="M582.171,71.01c2.509,0,4.55,2.041,4.55,4.55c0,0.502-0.083,0.996-0.246,1.472l-4.392-1.638l-0.106-0.04    l-0.1,0.054l-3.83,2.075c-0.279-0.599-0.426-1.259-0.426-1.924C577.621,73.051,579.662,71.01,582.171,71.01 M582.171,70.76    c-2.651,0-4.8,2.15-4.8,4.8c0,0.82,0.206,1.592,0.568,2.267l4.057-2.198l4.625,1.725c0.224-0.554,0.35-1.159,0.35-1.793    C586.971,72.91,584.822,70.76,582.171,70.76L582.171,70.76z"/>
	</g>
	<g>
		<path opacity="0.5" fill="#ED1C24" d="M526.59,84.812c-0.839-1.041-1.3-2.344-1.3-3.683c0-3.239,2.636-5.875,5.875-5.875    s5.875,2.636,5.875,5.875c0,0.812-0.169,1.606-0.501,2.362l-5.354-2.509L526.59,84.812z"/>
		<path fill="#ED1C24" d="M531.165,75.379c3.171,0,5.75,2.58,5.75,5.75c0,0.753-0.147,1.49-0.44,2.194l-5.164-2.421l-0.145-0.067    l-0.122,0.102l-4.436,3.696c-0.771-1.002-1.193-2.237-1.193-3.504C525.415,77.958,527.994,75.379,531.165,75.379 M531.165,75.129    c-3.314,0-6,2.688-6,6c0,1.471,0.53,2.816,1.408,3.859l4.631-3.859l5.396,2.529c0.357-0.77,0.564-1.624,0.564-2.529    C537.165,77.816,534.479,75.129,531.165,75.129L531.165,75.129z"/>
	</g>
	<g>
		<path opacity="0.5" fill="#ED1C24" d="M518.391,72.685c-2.358,0-4.46-1.387-5.392-3.547l5.762-1.646l1.893-6.099    c2.199,0.917,3.612,3.029,3.612,5.417C524.266,70.049,521.63,72.685,518.391,72.685L518.391,72.685z"/>
		<path fill="#ED1C24" d="M520.731,61.562c2.08,0.925,3.409,2.957,3.409,5.248c0,3.17-2.579,5.75-5.75,5.75    c-2.261,0-4.28-1.302-5.219-3.341l5.558-1.588l0.13-0.037l0.041-0.129L520.731,61.562 M520.574,61.226l-1.913,6.164l-5.832,1.667    c0.89,2.2,3.042,3.753,5.562,3.753c3.314,0,6-2.686,6-6C524.391,64.269,522.807,62.1,520.574,61.226L520.574,61.226z"/>
	</g>
	<g>
		<path opacity="0.5" fill="#ED1C24" d="M524.176,55.569c-0.558,0-1.109-0.079-1.644-0.233l1.643-5.294l-3.851-4.775    c1.073-0.934,2.437-1.447,3.852-1.447c3.24,0,5.876,2.636,5.876,5.875S527.416,55.569,524.176,55.569L524.176,55.569z"/>
		<path fill="#ED1C24" d="M524.176,43.944c3.171,0,5.751,2.58,5.751,5.75s-2.58,5.75-5.751,5.75c-0.503,0-1.001-0.065-1.485-0.194    l1.585-5.108l0.039-0.127l-0.084-0.104l-3.732-4.628C521.534,44.418,522.831,43.944,524.176,43.944 M524.176,43.694    c-1.55,0-2.958,0.593-4.023,1.558l3.884,4.815l-1.66,5.351c0.568,0.178,1.173,0.275,1.8,0.275c3.315,0,6.001-2.686,6.001-6    C530.177,46.382,527.491,43.694,524.176,43.694L524.176,43.694z"/>
	</g>
	<g>
		<path opacity="0.5" fill="#ED1C24" d="M539.515,40.013c-3.239,0-5.875-2.636-5.875-5.875c0-0.951,0.233-1.893,0.677-2.734    l5.288,3.305l3.401-5.291c1.495,1.108,2.384,2.862,2.384,4.72C545.39,37.377,542.754,40.013,539.515,40.013L539.515,40.013z"/>
		<path fill="#ED1C24" d="M543.037,29.6c1.399,1.088,2.228,2.766,2.228,4.539c0,3.17-2.579,5.75-5.75,5.75s-5.75-2.58-5.75-5.75    c0-0.885,0.207-1.763,0.601-2.556l5.068,3.167l0.21,0.131l0.133-0.208L543.037,29.6 M542.972,29.24l-3.405,5.298l-5.297-3.31    c-0.479,0.862-0.755,1.854-0.755,2.91c0,3.314,2.686,6,6,6s6-2.686,6-6C545.515,32.114,544.509,30.327,542.972,29.24    L542.972,29.24z"/>
	</g>
	<g>
		<path opacity="0.5" fill="#8DC63F" d="M509.327,31.629l5.919-1.303c0.203,0.607,0.307,1.231,0.307,1.856    c0,1.759-0.775,3.4-2.132,4.523L509.327,31.629z"/>
		<path fill="#8DC63F" d="M515.162,30.473c0.177,0.561,0.266,1.135,0.266,1.71c0,1.679-0.722,3.249-1.99,4.345l-3.886-4.82    L515.162,30.473 M515.328,30.18l-6.225,1.371l4.299,5.331c1.385-1.099,2.275-2.793,2.275-4.699    C515.678,31.479,515.551,30.807,515.328,30.18L515.328,30.18z"/>
	</g>
	<g>
		<path opacity="0.5" fill="#8DC63F" d="M563.01,41.308l5.479-1.567c0.164,0.547,0.247,1.112,0.247,1.682    c0,2.655-1.771,4.965-4.324,5.661L563.01,41.308z"/>
		<path fill="#8DC63F" d="M568.402,39.895c0.139,0.499,0.208,1.011,0.208,1.527c0,2.556-1.677,4.784-4.108,5.505l-1.342-5.532    L568.402,39.895 M568.571,39.586l-5.711,1.634l1.459,6.016c2.607-0.652,4.541-3.003,4.541-5.814    C568.86,40.781,568.758,40.166,568.571,39.586L568.571,39.586z"/>
	</g>
	<g>
		<path opacity="0.5" fill="#8DC63F" d="M562.063,44.99c-2.249,0-4.078-1.83-4.078-4.078c0-1.662,1.035-3.167,2.587-3.78    l2.178,4.146l0.825,3.42C563.091,44.892,562.583,44.99,562.063,44.99L562.063,44.99z"/>
		<path fill="#8DC63F" d="M560.515,37.291l2.11,4.018l0.803,3.312c-0.439,0.162-0.897,0.244-1.364,0.244    c-2.18,0-3.953-1.773-3.953-3.953C558.11,39.338,559.068,37.91,560.515,37.291 M560.632,36.976    c-1.613,0.587-2.771,2.121-2.771,3.936c0,2.322,1.881,4.203,4.203,4.203c0.59,0,1.148-0.124,1.658-0.342l-0.861-3.553    L560.632,36.976L560.632,36.976z"/>
	</g>
	<g>
		<path opacity="0.5" fill="#8DC63F" d="M571.156,74.911c0.426-0.095,0.85-0.143,1.261-0.143c2.114,0,4.059,1.133,5.104,2.965    l-5.021,2.722L571.156,74.911z"/>
		<path fill="#8DC63F" d="M572.417,74.894c2.026,0,3.894,1.063,4.932,2.792l-4.766,2.583l-1.275-5.262    C571.684,74.932,572.055,74.894,572.417,74.894 M572.417,74.644c-0.487,0-0.959,0.064-1.412,0.174l1.412,5.826l5.275-2.86    C576.677,75.914,574.695,74.644,572.417,74.644L572.417,74.644z"/>
	</g>
	<g>
		<path opacity="0.5" fill="#8DC63F" d="M550.184,95.964c-0.463,0-0.938-0.06-1.41-0.177l1.647-5.604l5.268-2.136    c0.246,0.66,0.37,1.347,0.37,2.042C556.059,93.328,553.423,95.964,550.184,95.964L550.184,95.964z"/>
		<path fill="#8DC63F" d="M555.615,88.211c0.211,0.608,0.318,1.239,0.318,1.877c0,3.17-2.579,5.75-5.75,5.75    c-0.412,0-0.832-0.048-1.253-0.144l1.594-5.42L555.615,88.211 M555.76,87.883l-5.441,2.206l-1.701,5.786    c0.5,0.135,1.023,0.214,1.566,0.214c3.314,0,6-2.686,6-6C556.184,89.309,556.03,88.566,555.76,87.883L555.76,87.883z"/>
	</g>
	<g>
		<path opacity="0.5" fill="#8DC63F" d="M546.735,88.271c0.776-1.165,2.055-1.856,3.448-1.856c1.498,0,2.868,0.813,3.608,2.13    l-3.47,1.407L546.735,88.271z"/>
		<path fill="#8DC63F" d="M550.184,86.54c1.405,0,2.695,0.738,3.428,1.944l-3.286,1.333l-3.403-1.596    C547.682,87.163,548.881,86.54,550.184,86.54 M550.184,86.29c-1.538,0-2.876,0.817-3.631,2.034l3.766,1.765l3.65-1.48    C553.255,87.237,551.837,86.29,550.184,86.29L550.184,86.29z"/>
	</g>
	<g>
		<path opacity="0.5" fill="#8DC63F" d="M567.597,82.949c-0.202-0.57-0.304-1.16-0.304-1.753c0-2.339,1.55-4.405,3.785-5.069    l1.194,4.927L567.597,82.949z"/>
		<path fill="#8DC63F" d="M570.988,76.286l1.137,4.693l-4.453,1.805c-0.169-0.518-0.254-1.051-0.254-1.588    C567.418,78.956,568.873,76.973,570.988,76.286 M571.169,75.971c-2.305,0.624-4.001,2.724-4.001,5.225    c0,0.676,0.129,1.321,0.355,1.918l4.896-1.985L571.169,75.971L571.169,75.971z"/>
	</g>
	<g>
		<path opacity="0.5" fill="#8DC63F" d="M546.056,105.026c1.889,0.516,3.414,1.974,4.024,3.848l-5.554,1.352L546.056,105.026z"/>
		<path fill="#8DC63F" d="M546.141,105.18c1.751,0.52,3.167,1.872,3.777,3.604l-5.21,1.269L546.141,105.18 M545.97,104.874    l-1.624,5.524l5.894-1.435C549.635,106.956,548.019,105.388,545.97,104.874L545.97,104.874z"/>
	</g>
	<g>
		<path opacity="0.5" fill="#8DC63F" d="M578.354,112.367c1.124-1.432,2.798-2.25,4.615-2.25c0.867,0,1.707,0.189,2.5,0.564    l-2.349,4.908L578.354,112.367z"/>
		<path fill="#8DC63F" d="M582.97,110.242c0.807,0,1.59,0.168,2.332,0.5l-0.367,0.768l-1.864,3.895l-4.533-3.064    C579.635,111.003,581.236,110.242,582.97,110.242 M582.97,109.992c-1.964,0-3.701,0.947-4.795,2.405l4.996,3.377l1.989-4.157    l0.476-0.994C584.831,110.223,583.929,109.992,582.97,109.992L582.97,109.992z"/>
	</g>
	<g>
		<path opacity="0.5" fill="#8DC63F" d="M570.807,87.685c-2.143-0.325-3.954-1.831-4.663-3.877l6.101-2.474L570.807,87.685z"/>
		<path fill="#8DC63F" d="M572.069,81.541l-1.358,6.002c-2.008-0.347-3.702-1.755-4.409-3.664L572.069,81.541 M572.419,81.129    l-6.432,2.607c0.702,2.164,2.601,3.784,4.916,4.089L572.419,81.129L572.419,81.129z"/>
	</g>
	<g>
		<path opacity="0.5" fill="#8DC63F" d="M561.312,106.14c-0.095-0.43-0.144-0.855-0.144-1.266c0-3.239,2.636-5.875,5.875-5.875    c0.385,0,0.778,0.041,1.175,0.122l-1.279,5.65L561.312,106.14z"/>
		<path fill="#8DC63F" d="M567.044,99.124c0.335,0,0.679,0.032,1.024,0.095l-1.234,5.449l-5.426,1.32    c-0.076-0.378-0.114-0.752-0.114-1.114C561.294,101.704,563.873,99.124,567.044,99.124 M567.044,98.874c-3.314,0-6,2.688-6,6    c0,0.489,0.065,0.962,0.176,1.417l5.824-1.417l1.324-5.849C567.941,98.929,567.5,98.874,567.044,98.874L567.044,98.874z"/>
	</g>
	<g>
		<path opacity="0.5" fill="#8DC63F" d="M567.185,104.818l1.277-5.642c2.631,0.65,4.457,2.976,4.457,5.698    c0,1.138-0.324,2.237-0.938,3.186L567.185,104.818z"/>
		<path fill="#8DC63F" d="M568.556,99.329c2.508,0.678,4.238,2.924,4.238,5.545c0,1.071-0.293,2.106-0.85,3.01l-4.619-3.121    L568.556,99.329 M568.368,99.025l-1.324,5.849l4.972,3.36c0.649-0.958,1.028-2.115,1.028-3.36    C573.044,102.017,571.044,99.629,568.368,99.025L568.368,99.025z"/>
	</g>
	<g>
		<path opacity="0.5" fill="#8DC63F" d="M572.419,87.004c-0.384,0-0.778-0.041-1.175-0.122l1.24-5.478l3.586,4.327    C575.035,86.553,573.743,87.004,572.419,87.004L572.419,87.004z"/>
		<path fill="#8DC63F" d="M572.551,81.68l3.341,4.032c-0.996,0.754-2.219,1.167-3.473,1.167c-0.335,0-0.679-0.032-1.024-0.095    L572.551,81.68 M572.419,81.129l-1.324,5.849c0.427,0.096,0.868,0.151,1.324,0.151c1.455,0,2.789-0.519,3.828-1.38L572.419,81.129    L572.419,81.129z"/>
	</g>
	<polygon fill="none" stroke="#000000" points="550.318,90.089 531.204,81.129 520.452,90.089 497.754,73.364 518.661,67.39 524.036,50.068 509.104,31.551 528.094,27.369 539.566,34.538 550.318,17.812 562.862,41.706 572.419,81.129"/>
	<polygon fill="none" stroke="#000000" points="562.862,41.706 586.629,34.907 598.062,41.706 596.503,55.694 611.227,55.694 611.227,69.033 597.542,69.033 595.811,81.129 581.952,75.962 572.419,81.129"/>
	<polygon fill="none" stroke="#000000" points="567.044,104.874 583.172,115.774 589.742,102.036 572.419,81.129"/>
	<polygon fill="none" stroke="#000000" points="572.419,81.129 550.318,90.089 544.346,110.398 567.044,104.874"/>
	<line fill="none" stroke="#27AAE1" stroke-width="1.2" x1="566.266" y1="107.874" x2="573.322" y2="77.227"/>
	<g>
		<path d="M563.26,100.622c-0.468,0.18-1.403,0.444-2.494,0.444c-1.224,0-2.231-0.312-3.023-1.067    c-0.695-0.672-1.127-1.751-1.127-3.01c0-2.411,1.667-4.174,4.378-4.174c0.935,0,1.679,0.204,2.026,0.372l-0.264,0.852    c-0.432-0.204-0.971-0.348-1.787-0.348c-1.967,0-3.25,1.223-3.25,3.25c0,2.051,1.223,3.262,3.118,3.262    c0.684,0,1.151-0.096,1.392-0.216v-2.411h-1.631v-0.839h2.662V100.622z"/>
	</g>
	<g>
		<path d="M575.248,96.791h4.354v0.875h-3.298v2.687h3.046v0.863h-3.046v3.658h-1.056V96.791z"/>
	</g>
</g>
<g>
	<path opacity="0.5" fill="#ED1C24" d="M37.348,272.361c-1.515-0.001-2.954-0.577-4.053-1.623c-0.403-0.385-0.749-0.823-1.028-1.303   l4.842-2.7l0.505-6.113c1.422,0.064,2.764,0.634,3.789,1.609c2.345,2.236,2.435,5.963,0.199,8.307   C40.481,271.714,38.971,272.361,37.348,272.361C37.349,272.361,37.349,272.361,37.348,272.361z"/>
	<path fill="#ED1C24" d="M37.729,260.755c1.347,0.088,2.613,0.641,3.587,1.568c2.296,2.188,2.383,5.834,0.196,8.129   c-1.097,1.15-2.575,1.784-4.164,1.784c-1.482,0-2.892-0.564-3.966-1.589c-0.365-0.348-0.681-0.738-0.942-1.166l4.672-2.604   l0.116-0.065l0.011-0.133L37.729,260.755 M37.499,260.493l-0.51,6.166l-4.894,2.729c0.288,0.521,0.659,1.008,1.113,1.441   c1.162,1.107,2.652,1.657,4.139,1.657c1.584,0,3.165-0.624,4.345-1.861c2.285-2.397,2.195-6.196-0.204-8.483   C40.365,261.072,38.937,260.53,37.499,260.493L37.499,260.493z"/>
</g>
<g>
	<path opacity="0.5" fill="#8DC63F" d="M36.013,255.959c-0.465,0-0.938-0.06-1.41-0.177l1.647-5.605l5.268-2.135   c0.246,0.66,0.37,1.346,0.37,2.042C41.888,253.323,39.252,255.959,36.013,255.959L36.013,255.959z"/>
	<path fill="#8DC63F" d="M41.444,248.206c0.211,0.609,0.318,1.239,0.318,1.878c0,3.171-2.579,5.75-5.75,5.75   c-0.413,0-0.833-0.048-1.253-0.144l1.594-5.42L41.444,248.206 M41.589,247.878l-5.441,2.206l-1.701,5.786   c0.5,0.136,1.023,0.214,1.566,0.214c3.314,0,6-2.686,6-6C42.013,249.305,41.859,248.562,41.589,247.878L41.589,247.878z"/>
</g>
<g>
	<path d="M47.144,252.152l5.564-2.865v0.827l-4.689,2.351v0.023l4.689,2.352v0.827l-5.564-2.866V252.152z"/>
	<path d="M56.334,248.854h-0.023l-1.355,0.731l-0.204-0.803l1.703-0.912h0.899v7.796h-1.02V248.854z"/>
	<path d="M61.638,251.565c-0.875-0.408-1.247-1.079-1.247-1.751c0-1.235,1.044-2.075,2.423-2.075c1.511,0,2.278,0.936,2.278,1.919   c0,0.66-0.335,1.379-1.295,1.823v0.036c0.972,0.383,1.571,1.079,1.571,2.015c0,1.367-1.163,2.267-2.65,2.267   c-1.632,0-2.615-0.959-2.615-2.099c0-0.983,0.588-1.691,1.548-2.099L61.638,251.565z M64.301,253.641   c0-0.936-0.66-1.404-1.715-1.703c-0.912,0.264-1.403,0.875-1.403,1.619c-0.036,0.779,0.563,1.475,1.559,1.475   C63.689,255.031,64.301,254.443,64.301,253.641z M61.398,249.742c-0.012,0.779,0.588,1.199,1.487,1.439   c0.671-0.229,1.187-0.708,1.187-1.416c0-0.623-0.371-1.271-1.318-1.271C61.878,248.495,61.398,249.07,61.398,249.742z"/>
	<path d="M71.548,251.686c0,2.65-0.995,4.113-2.71,4.113c-1.523,0-2.566-1.428-2.591-4.006c0-2.627,1.14-4.054,2.723-4.054   C70.601,247.739,71.548,249.203,71.548,251.686z M67.314,251.805c0,2.027,0.624,3.179,1.583,3.179c1.067,0,1.583-1.259,1.583-3.25   c0-1.919-0.479-3.179-1.583-3.179C67.986,248.555,67.314,249.682,67.314,251.805z"/>
	<path d="M75.542,249.951c0,1.252-0.874,1.797-1.685,1.797c-0.908,0-1.621-0.672-1.621-1.74c0-1.125,0.748-1.789,1.677-1.789   C74.885,248.219,75.542,248.924,75.542,249.951z M72.865,249.986c0,0.741,0.419,1.301,1.021,1.301c0.587,0,1.027-0.553,1.027-1.314   c0-0.573-0.287-1.293-1.014-1.293C73.18,248.68,72.865,249.351,72.865,249.986z"/>
</g>
<g>
	<path d="M52.708,266.632l-5.564,2.854v-0.828l4.725-2.35v-0.024l-4.725-2.351v-0.828l5.564,2.843V266.632z"/>
	<path d="M56.334,262.674h-0.023l-1.355,0.732l-0.204-0.805l1.703-0.911h0.899v7.796h-1.02V262.674z"/>
	<path d="M61.638,265.385c-0.875-0.408-1.247-1.08-1.247-1.751c0-1.235,1.044-2.075,2.423-2.075c1.511,0,2.278,0.936,2.278,1.919   c0,0.659-0.335,1.38-1.295,1.823v0.035c0.972,0.385,1.571,1.08,1.571,2.016c0,1.367-1.163,2.267-2.65,2.267   c-1.632,0-2.615-0.96-2.615-2.099c0-0.983,0.588-1.691,1.548-2.1L61.638,265.385z M64.301,267.459c0-0.936-0.66-1.402-1.715-1.703   c-0.912,0.264-1.403,0.876-1.403,1.619c-0.036,0.78,0.563,1.476,1.559,1.476C63.689,268.851,64.301,268.264,64.301,267.459z    M61.398,263.562c-0.012,0.78,0.588,1.199,1.487,1.439c0.671-0.228,1.187-0.708,1.187-1.415c0-0.624-0.371-1.271-1.318-1.271   C61.878,262.314,61.398,262.891,61.398,263.562z"/>
	<path d="M71.548,265.504c0,2.651-0.995,4.114-2.71,4.114c-1.523,0-2.566-1.427-2.591-4.006c0-2.626,1.14-4.054,2.723-4.054   C70.601,261.559,71.548,263.021,71.548,265.504z M67.314,265.625c0,2.026,0.624,3.178,1.583,3.178c1.067,0,1.583-1.26,1.583-3.25   c0-1.919-0.479-3.179-1.583-3.179C67.986,262.374,67.314,263.502,67.314,265.625z"/>
	<path d="M75.542,263.771c0,1.25-0.874,1.795-1.685,1.795c-0.908,0-1.621-0.67-1.621-1.739c0-1.126,0.748-1.789,1.677-1.789   C74.885,262.038,75.542,262.744,75.542,263.771z M72.865,263.807c0,0.74,0.419,1.299,1.021,1.299c0.587,0,1.027-0.552,1.027-1.313   c0-0.573-0.287-1.293-1.014-1.293C73.18,262.499,72.865,263.17,72.865,263.807z"/>
</g>
<circle fill="none" stroke="#000000" stroke-width="0.25" cx="121.324" cy="170.094" r="11.322"/>
<g>
	<path d="M119.871,171.073l-0.839,2.542h-1.08l2.758-8.083h1.248l2.758,8.083h-1.115l-0.864-2.542H119.871z M122.534,170.257   l-0.804-2.327c-0.18-0.527-0.3-1.007-0.419-1.475h-0.024c-0.12,0.468-0.24,0.972-0.408,1.463l-0.792,2.338H122.534z"/>
</g>
<circle fill="none" stroke="#000000" stroke-width="0.25" cx="264.247" cy="170.094" r="11.322"/>
<g>
	<path d="M262.794,171.073l-0.839,2.542h-1.08l2.758-8.083h1.248l2.758,8.083h-1.115l-0.864-2.542H262.794z M265.457,170.257   l-0.804-2.327c-0.18-0.527-0.3-1.007-0.419-1.475h-0.024c-0.12,0.468-0.24,0.972-0.408,1.463l-0.792,2.338H265.457z"/>
</g>
<g>
	<path d="M237.388,193.75c0.456-0.108,1.187-0.18,1.907-0.18c1.043,0,1.715,0.18,2.207,0.588c0.419,0.312,0.684,0.792,0.684,1.427   c0,0.792-0.528,1.475-1.367,1.775v0.036c0.768,0.18,1.667,0.815,1.667,2.015c0,0.696-0.276,1.235-0.696,1.619   c-0.552,0.516-1.463,0.755-2.782,0.755c-0.72,0-1.271-0.048-1.619-0.096V193.75z M238.432,197.061h0.947   c1.091,0,1.739-0.588,1.739-1.367c0-0.936-0.708-1.319-1.763-1.319c-0.48,0-0.755,0.036-0.923,0.072V197.061z M238.432,200.923   c0.216,0.036,0.503,0.048,0.875,0.048c1.079,0,2.075-0.396,2.075-1.571c0-1.091-0.947-1.559-2.087-1.559h-0.863V200.923z"/>
</g>
<g>
	<path d="M290.114,201.462c-0.372,0.192-1.151,0.384-2.135,0.384c-2.279,0-3.982-1.439-3.982-4.102c0-2.542,1.715-4.246,4.222-4.246   c0.996,0,1.643,0.216,1.919,0.36l-0.264,0.852c-0.384-0.192-0.948-0.336-1.619-0.336c-1.895,0-3.154,1.211-3.154,3.334   c0,1.991,1.139,3.25,3.094,3.25c0.648,0,1.295-0.132,1.715-0.336L290.114,201.462z"/>
</g>
<circle fill="none" stroke="#000000" stroke-width="0.25" cx="449.836" cy="198.193" r="11.322"/>
<circle fill="none" stroke="#000000" stroke-width="0.25" cx="392.747" cy="198.193" r="11.322"/>
<circle fill="none" stroke="#000000" stroke-width="0.25" cx="420.846" cy="170.094" r="11.322"/>
<g>
	<path d="M419.393,171.073l-0.84,2.542h-1.079l2.759-8.083h1.247l2.759,8.083h-1.115l-0.864-2.542H419.393z M422.055,170.257   l-0.803-2.327c-0.18-0.527-0.301-1.007-0.42-1.475h-0.024c-0.12,0.468-0.239,0.972-0.407,1.463l-0.792,2.338H422.055z"/>
</g>
<g>
	<path d="M389.986,193.75c0.456-0.108,1.188-0.18,1.907-0.18c1.044,0,1.716,0.18,2.207,0.588c0.419,0.312,0.684,0.792,0.684,1.427   c0,0.792-0.528,1.475-1.367,1.775v0.036c0.768,0.18,1.667,0.815,1.667,2.015c0,0.696-0.275,1.235-0.695,1.619   c-0.553,0.516-1.463,0.755-2.783,0.755c-0.719,0-1.271-0.048-1.619-0.096V193.75z M391.03,197.061h0.947   c1.091,0,1.739-0.588,1.739-1.367c0-0.936-0.708-1.319-1.764-1.319c-0.479,0-0.755,0.036-0.923,0.072V197.061z M391.03,200.923   c0.216,0.036,0.503,0.048,0.876,0.048c1.078,0,2.074-0.396,2.074-1.571c0-1.091-0.947-1.559-2.087-1.559h-0.863V200.923z"/>
</g>
<g>
	<path d="M452.713,201.462c-0.372,0.192-1.152,0.384-2.135,0.384c-2.279,0-3.982-1.439-3.982-4.102c0-2.542,1.715-4.246,4.222-4.246   c0.995,0,1.644,0.216,1.919,0.36l-0.264,0.852c-0.384-0.192-0.947-0.336-1.619-0.336c-1.895,0-3.154,1.211-3.154,3.334   c0,1.991,1.139,3.25,3.094,3.25c0.648,0,1.296-0.132,1.716-0.336L452.713,201.462z"/>
</g>
<circle fill="#FBB040" fill-opacity="0.2" stroke="#000000" stroke-width="0.25" cx="366.636" cy="228.13" r="11.322"/>
<circle fill="#7F3F98" fill-opacity="0.15" stroke="#000000" stroke-width="0.25" cx="421.392" cy="228.13" r="11.322"/>
<g>
	<path d="M422.806,227.861h-3.13v2.915h3.502v0.876h-4.558v-8.084h4.378v0.875h-3.322v2.555h3.13V227.861z"/>
</g>
<g>
	<path d="M363.875,223.688c0.637-0.107,1.392-0.18,2.219-0.18c1.5,0,2.566,0.36,3.274,1.008c0.731,0.66,1.151,1.596,1.151,2.902   c0,1.319-0.42,2.398-1.163,3.143c-0.768,0.756-2.015,1.163-3.586,1.163c-0.756,0-1.367-0.036-1.896-0.096V223.688z    M364.919,230.836c0.264,0.036,0.647,0.049,1.056,0.049c2.242,0,3.441-1.248,3.441-3.431c0.012-1.907-1.066-3.118-3.273-3.118   c-0.54,0-0.947,0.048-1.224,0.107V230.836z"/>
</g>
<circle fill="none" stroke="#000000" stroke-width="0.25" cx="597.784" cy="198.193" r="11.322"/>
<circle fill="none" stroke="#000000" stroke-width="0.25" cx="540.695" cy="198.193" r="11.322"/>
<circle fill="none" stroke="#000000" stroke-width="0.25" cx="568.794" cy="170.094" r="11.322"/>
<g>
	<path d="M567.341,171.073l-0.839,2.542h-1.08l2.758-8.083h1.248l2.758,8.083h-1.115l-0.863-2.542H567.341z M570.004,170.257   l-0.805-2.327c-0.18-0.527-0.299-1.007-0.419-1.475h-0.024c-0.119,0.468-0.24,0.972-0.408,1.463l-0.791,2.338H570.004z"/>
</g>
<g>
	<path d="M537.936,193.75c0.455-0.108,1.187-0.18,1.906-0.18c1.043,0,1.715,0.18,2.207,0.588c0.42,0.312,0.684,0.792,0.684,1.427   c0,0.792-0.527,1.475-1.367,1.775v0.036c0.768,0.18,1.667,0.815,1.667,2.015c0,0.696-0.276,1.235-0.696,1.619   c-0.551,0.516-1.463,0.755-2.781,0.755c-0.721,0-1.271-0.048-1.619-0.096V193.75z M538.979,197.061h0.947   c1.092,0,1.739-0.588,1.739-1.367c0-0.936-0.708-1.319-1.763-1.319c-0.48,0-0.756,0.036-0.924,0.072V197.061z M538.979,200.923   c0.216,0.036,0.504,0.048,0.875,0.048c1.08,0,2.075-0.396,2.075-1.571c0-1.091-0.947-1.559-2.087-1.559h-0.863V200.923z"/>
</g>
<g>
	<path d="M600.66,201.462c-0.371,0.192-1.15,0.384-2.135,0.384c-2.278,0-3.981-1.439-3.981-4.102c0-2.542,1.716-4.246,4.222-4.246   c0.996,0,1.643,0.216,1.919,0.36l-0.264,0.852c-0.384-0.192-0.948-0.336-1.619-0.336c-1.896,0-3.154,1.211-3.154,3.334   c0,1.991,1.14,3.25,3.095,3.25c0.647,0,1.295-0.132,1.715-0.336L600.66,201.462z"/>
</g>
<circle fill="none" stroke="#000000" stroke-width="0.25" cx="514.584" cy="228.13" r="11.322"/>
<circle fill="none" stroke="#000000" stroke-width="0.25" cx="569.34" cy="228.13" r="11.322"/>
<g>
	<path d="M570.754,227.861h-3.13v2.915h3.502v0.876h-4.558v-8.084h4.378v0.875h-3.322v2.555h3.13V227.861z"/>
</g>
<g>
	<path d="M511.824,223.688c0.635-0.107,1.391-0.18,2.219-0.18c1.498,0,2.566,0.36,3.273,1.008c0.732,0.66,1.151,1.596,1.151,2.902   c0,1.319-0.419,2.398-1.163,3.143c-0.768,0.756-2.016,1.163-3.586,1.163c-0.756,0-1.367-0.036-1.895-0.096V223.688z    M512.867,230.836c0.264,0.036,0.647,0.049,1.055,0.049c2.243,0,3.443-1.248,3.443-3.431c0.012-1.907-1.068-3.118-3.275-3.118   c-0.539,0-0.947,0.048-1.223,0.107V230.836z"/>
</g>
<circle fill="#FBB040" fill-opacity="0.2" stroke="#000000" stroke-width="0.25" cx="492.185" cy="256.659" r="11.322"/>
<circle fill="#7F3F98" fill-opacity="0.15" stroke="#000000" stroke-width="0.25" cx="535.086" cy="256.66" r="11.322"/>
<g>
	<path d="M538.491,259.822c-0.468,0.18-1.403,0.443-2.495,0.443c-1.223,0-2.23-0.312-3.021-1.066   c-0.696-0.672-1.128-1.752-1.128-3.011c0-2.411,1.667-4.174,4.378-4.174c0.936,0,1.679,0.204,2.027,0.372l-0.265,0.852   c-0.432-0.204-0.972-0.348-1.787-0.348c-1.967,0-3.25,1.223-3.25,3.25c0,2.051,1.224,3.262,3.118,3.262   c0.684,0,1.151-0.096,1.392-0.216v-2.411h-1.632v-0.839h2.663V259.822z"/>
</g>
<g>
	<path d="M489.412,252.098h4.354v0.875h-3.298v2.688h3.046v0.863h-3.046v3.658h-1.056V252.098z"/>
</g>
<line fill="none" stroke="#27AAE1" x1="272.905" y1="177.382" x2="282.071" y2="188.126"/>
<line fill="none" stroke="#27AAE1" x1="255.307" y1="176.616" x2="244.581" y2="187.773"/>
<line fill="none" stroke="#27AAE1" x1="383.502" y1="204.714" x2="371.21" y2="217.778"/>
<line fill="none" stroke="#27AAE1" x1="402.719" y1="204.714" x2="416.197" y2="218.077"/>
<line fill="none" stroke="#27AAE1" x1="522.535" y1="236.387" x2="530.26" y2="247.073"/>
<line fill="none" stroke="#27AAE1" x1="507.208" y1="236.718" x2="498.199" y2="247.073"/>
<line fill="none" stroke="#6D6E71" x1="412.187" y1="177.382" x2="400.354" y2="189.825"/>
<line fill="none" stroke="#6D6E71" x1="430.091" y1="176.616" x2="443.354" y2="188.917"/>
<line fill="none" stroke="#6D6E71" x1="532.49" y1="205.98" x2="522.535" y2="217.778"/>
<line fill="none" stroke="#6D6E71" x1="548.899" y1="205.98" x2="561.97" y2="218.077"/>
<line fill="none" stroke="#6D6E71" x1="559.548" y1="176.616" x2="548.899" y2="188.917"/>
<line fill="none" stroke="#6D6E71" x1="579.043" y1="174.882" x2="592.618" y2="188.126"/>
<path fill="none" stroke="#6D6E71" d="M91.871,277c0,1.657-1.343,3-3,3H18c-1.657,0-3-1.343-3-3v-34.549c0-1.657,1.343-3,3-3h70.871  c1.657,0,3,1.343,3,3V277z"/>
</svg>